<svg width="267" height="35" viewBox="0 0 267 35" fill="none" xmlns="http://www.w3.org/2000/svg">
<path d="M31.1784 12.451H29.6997C29.4952 11.4086 29.0705 10.3346 28.4255 9.1974C27.7806 8.07601 26.9783 7.04939 26.0344 6.14912C25.0906 5.24884 24.0366 4.49072 22.8568 3.90634C21.677 3.32195 20.4657 3.03765 19.1915 3.03765C18.1061 3.06924 17.0521 3.35354 16.0296 3.90634C15.0071 4.45913 14.1262 5.31202 13.3711 6.44921C12.5373 7.66536 11.9081 9.10264 11.4677 10.7294C11.0272 12.372 10.7598 14.0778 10.6654 15.8626C10.571 17.6473 10.6654 19.4321 10.9328 21.201C11.2002 22.97 11.6564 24.581 12.3014 26.0656C12.9935 27.6766 13.9374 28.9402 15.0858 29.8405C16.2498 30.7565 17.5083 31.3409 18.8454 31.5936C20.1826 31.8463 21.5669 31.8147 22.9669 31.4515C24.367 31.0882 25.6884 30.5038 26.8839 29.6351C28.0794 28.7822 29.1177 27.6766 29.9671 26.3499C30.8166 25.0074 31.3829 23.4754 31.6346 21.738L31.2885 32.1306H23.6591C20.8904 32.6992 18.3892 32.8572 16.1397 32.5729C13.8902 32.3044 11.9081 31.72 10.2092 30.8197C8.51025 29.9194 7.06301 28.7822 5.89892 27.4081C4.73484 26.034 3.85391 24.5336 3.24041 22.891C2.6269 21.2484 2.29656 19.5584 2.23363 17.8053C2.17071 16.0521 2.39094 14.3463 2.89433 12.6879C3.39772 11.0295 4.18426 9.4817 5.23823 8.06022C6.2922 6.63874 7.64505 5.43838 9.29679 4.47493C10.9328 3.51148 12.8677 2.84812 15.07 2.48486C17.2723 2.12159 19.7735 2.15318 22.5736 2.59542H32.1065L31.1312 12.4036L31.1784 12.451Z" fill="#21301B"/>
<path d="M53.9253 28.9087C53.9253 29.2719 54.0197 29.6352 54.2085 29.9985C54.3972 30.3617 54.6489 30.6934 54.9478 30.9935C55.2467 31.2936 55.5613 31.5463 55.9231 31.7516C56.2692 31.9569 56.6153 32.0833 56.9456 32.1465H46.5633V30.9777C45.5879 31.3726 44.5497 31.6726 43.4643 31.878C42.3788 32.0833 41.2148 32.1781 39.972 32.1465C38.0529 32.1465 36.527 31.8148 35.3786 31.1672C34.2303 30.5197 33.3965 29.6984 32.8931 28.7191C32.3897 27.7399 32.201 26.6659 32.3111 25.5287C32.4212 24.3915 32.7987 23.3175 33.428 22.3383C34.0572 21.359 34.9381 20.5377 36.0393 19.8902C37.1562 19.2426 38.4619 18.9109 39.9563 18.9109H46.5475V16.6523C46.5003 14.8834 46.2172 13.5725 45.6981 12.7196C45.1789 11.8667 44.534 11.3455 43.7474 11.1875C42.9609 11.0138 42.08 11.1244 41.1046 11.5192C40.1293 11.9141 39.1855 12.4827 38.2574 13.2566C37.3292 14.0147 36.4483 14.8992 35.646 15.91C34.8438 16.9208 34.1831 17.9317 33.6954 18.9583L34.3561 11.0612L40.79 10.9506C40.79 10.9506 40.8844 10.9506 40.9001 10.9348C40.9316 10.9348 40.9631 10.919 41.0103 10.919C42.7721 10.4768 44.4396 10.3504 46.0127 10.5558C47.5858 10.7611 48.9701 11.2507 50.1342 12.0562C51.2982 12.8617 52.2264 13.9515 52.9028 15.3098C53.5792 16.6681 53.9096 18.2949 53.9096 20.1902V28.9402L53.9253 28.9087ZM46.5633 19.8902H45.5565C44.4239 19.8902 43.4171 20.0639 42.5676 20.4114C41.7181 20.7588 41.0103 21.2169 40.4754 21.7855C39.9406 22.354 39.5316 23.0016 39.2956 23.7281C39.0439 24.4547 38.9495 25.197 39.0124 25.9393C39.1226 27.2345 39.4057 28.2137 39.8619 28.8771C40.3338 29.5404 40.9159 29.9827 41.608 30.2038C42.3002 30.4249 43.0867 30.4723 43.9362 30.3459C44.7857 30.2196 45.6666 29.9985 46.579 29.6826V19.8744L46.5633 19.8902Z" fill="#21301B"/>
<path d="M65.9436 28.8297C65.9436 29.1929 66.038 29.5562 66.2425 29.9195C66.4313 30.2827 66.683 30.6144 66.9819 30.9145C67.2808 31.2146 67.5954 31.4673 67.9572 31.6884C68.3033 31.9095 68.6494 32.0517 68.9797 32.1307H55.5613C55.9231 32.0517 56.2849 31.9095 56.6467 31.6884C57.0085 31.4673 57.3389 31.2146 57.6378 30.9145C57.9366 30.6144 58.1726 30.2827 58.3771 29.9195C58.5659 29.5562 58.6603 29.1929 58.6603 28.8297V13.8094C58.6603 13.4935 58.5501 13.1776 58.3299 12.8617C58.1097 12.53 57.8423 12.2299 57.5434 11.9456C57.2288 11.6613 56.8984 11.4244 56.5366 11.2191C56.1748 11.0296 55.8444 10.9032 55.5613 10.8558H65.9436V12.4984C66.3841 12.0088 66.9504 11.614 67.6426 11.3139C68.3347 11.0138 69.1999 10.8716 70.2382 10.8716H76.1373L75.4766 17.9948H74.3125C74.108 16.7787 73.7619 15.7205 73.2585 14.8202C72.7708 13.9199 72.2045 13.225 71.591 12.7196C70.9775 12.2141 70.3326 11.9298 69.6719 11.8509C69.0112 11.7719 68.4134 11.9456 67.8628 12.3721C67.3122 12.7985 66.8718 13.4935 66.51 14.4727C66.1482 15.452 65.9594 16.7313 65.9279 18.3107V28.8612L65.9436 28.8297Z" fill="#21301B"/>
<path d="M99.5134 28.9086C99.5134 29.2719 99.6077 29.6351 99.8122 29.9984C100.001 30.3617 100.253 30.6934 100.552 30.9934C100.85 31.2935 101.165 31.5462 101.527 31.7516C101.873 31.9569 102.219 32.0832 102.549 32.1464H92.23V30.6302C91.2704 31.104 90.2164 31.4673 89.0523 31.7358C87.8883 32.0043 86.7242 32.1622 85.5601 32.178C84.396 32.2096 83.2948 32.0832 82.2409 31.8147C81.1869 31.5462 80.306 31.104 79.5824 30.5038C78.8587 29.9036 78.2767 29.1771 77.8205 28.3084C77.3643 27.4397 77.0497 26.4921 76.8452 25.4655C76.6564 24.4388 76.5935 23.3648 76.6564 22.2592C76.7193 21.1378 76.8924 20.048 77.1755 18.9582C77.5373 17.5052 78.0879 16.289 78.8273 15.3256C79.5666 14.3463 80.3846 13.5566 81.3127 12.9564C82.2251 12.3405 83.1847 11.8824 84.1758 11.5665C85.1668 11.2507 86.1264 11.0295 87.0388 10.9032C87.9512 10.7768 88.7849 10.7137 89.5243 10.7137H92.2142V6.00698C92.2142 5.69109 92.1041 5.37521 91.8996 5.05932C91.6951 4.72765 91.4277 4.42756 91.1288 4.14326C90.8142 3.85896 90.4838 3.60626 90.1378 3.40093C89.7917 3.19561 89.4771 3.05346 89.1939 2.97449H99.4976V28.9402L99.5134 28.9086ZM92.23 11.6297L91.176 11.6613C90.0591 11.6297 89.0523 11.8982 88.1557 12.4352C87.2433 12.988 86.4567 13.7146 85.7488 14.6148C85.0567 15.5309 84.4904 16.5417 84.0656 17.6947C83.6409 18.8319 83.342 20.0165 83.2004 21.2168C83.0431 22.4172 83.0589 23.6017 83.2162 24.7389C83.3892 25.8761 83.7353 26.9027 84.2859 27.8188C84.805 28.7822 85.387 29.4772 86.0477 29.9036C86.7084 30.3301 87.3849 30.567 88.077 30.6302C88.7692 30.6776 89.4771 30.5986 90.185 30.3775C90.8928 30.1563 91.5693 29.8721 92.2142 29.5088V11.6297H92.23Z" fill="#21301B"/>
<path d="M114.552 32.5413C111.768 32.4623 109.424 31.8779 107.552 30.7724C105.68 29.6668 104.28 28.3085 103.352 26.6816C102.424 25.0548 101.952 23.3175 101.952 21.4538C101.952 19.59 102.424 17.8369 103.352 16.2259C104.28 14.5991 105.68 13.2408 107.552 12.1352C109.424 11.0296 111.752 10.4452 114.552 10.3662C114.993 10.3662 115.417 10.3978 115.826 10.461C116.235 10.5242 116.629 10.6031 116.99 10.7137H123.975L123.314 17.8369H122.197C122.04 17.063 121.741 16.2733 121.301 15.4993C120.86 14.7254 120.325 14.0147 119.696 13.3513C119.067 12.688 118.359 12.1668 117.588 11.7403C116.817 11.3139 116.031 11.0612 115.244 10.998C114.458 10.9348 113.671 11.0927 112.9 11.4718C112.13 11.8509 111.422 12.5142 110.808 13.4777C110.21 14.3306 109.754 15.3572 109.408 16.5575C109.078 17.7579 108.873 19.0057 108.81 20.3166C108.747 21.6275 108.81 22.9226 109.031 24.202C109.235 25.4813 109.581 26.6658 110.037 27.7241C110.556 28.9244 111.217 29.8405 112.035 30.5038C112.853 31.1672 113.718 31.5937 114.646 31.7674C115.575 31.9569 116.518 31.9095 117.462 31.6726C118.406 31.4199 119.256 30.9777 120.026 30.3459C120.782 29.7141 121.411 28.9086 121.867 27.9294C122.339 26.9501 122.559 25.8446 122.559 24.5968H123.645L123.456 32.1149L117.793 32.1464C117.352 32.2728 116.865 32.3676 116.314 32.4465C115.779 32.5097 115.197 32.5413 114.568 32.5413H114.552Z" fill="#21301B"/>
<path d="M137 32.5412C134.908 32.4938 133.067 32.1306 131.478 31.4672C129.89 30.8039 128.568 29.951 127.53 28.9243C126.476 27.8819 125.689 26.7132 125.17 25.418C124.635 24.1229 124.384 22.7962 124.384 21.4221C124.384 20.048 124.651 18.7213 125.17 17.4104C125.705 16.0994 126.492 14.9307 127.53 13.8882C128.584 12.8458 129.89 12.0087 131.463 11.3454C133.036 10.682 134.892 10.3345 137 10.2714C139.124 10.3187 140.964 10.682 142.537 11.3454C144.11 12.0087 145.432 12.8616 146.47 13.8882C147.524 14.9307 148.31 16.0994 148.83 17.4104C149.364 18.7213 149.616 20.0638 149.616 21.4221C149.616 22.7804 149.349 24.1071 148.83 25.418C148.295 26.7132 147.508 27.8819 146.47 28.9243C145.416 29.9668 144.11 30.8196 142.521 31.4672C140.933 32.1306 139.092 32.478 137 32.5412ZM132.737 13.3828C132.139 14.2673 131.683 15.3097 131.337 16.4943C131.006 17.6946 130.802 18.9424 130.739 20.2533C130.676 21.5642 130.739 22.8752 130.928 24.1703C131.117 25.4654 131.447 26.65 131.919 27.7082C132.532 29.1139 133.303 30.1563 134.231 30.867C135.144 31.562 136.103 31.9094 137.079 31.8779C138.054 31.8463 138.998 31.483 139.91 30.7565C140.823 30.0299 141.562 28.9717 142.16 27.566C142.6 26.5078 142.915 25.3233 143.104 24.0281C143.292 22.733 143.355 21.4379 143.277 20.1428C143.198 18.8476 142.993 17.5999 142.663 16.4311C142.333 15.2465 141.861 14.2357 141.263 13.3828C140.712 12.5773 140.067 11.9613 139.328 11.5507C138.589 11.14 137.802 10.9347 137.016 10.9347C136.229 10.9347 135.458 11.14 134.703 11.5507C133.948 11.9613 133.287 12.5931 132.721 13.4144L132.737 13.3828ZM137.189 17.742C137.189 18.2317 137.283 18.6897 137.456 19.1003C137.629 19.511 137.881 19.8742 138.195 20.1901C138.51 20.506 138.872 20.7429 139.281 20.9325C139.69 21.122 140.13 21.201 140.602 21.201V21.5484C140.13 21.5484 139.69 21.6432 139.281 21.8169C138.872 22.0065 138.51 22.2434 138.195 22.5593C137.881 22.8752 137.645 23.2384 137.456 23.6491C137.267 24.0597 137.189 24.502 137.189 24.9758H136.795C136.795 24.502 136.701 24.0755 136.528 23.6491C136.339 23.2384 136.103 22.8752 135.804 22.5593C135.506 22.2434 135.159 22.0065 134.75 21.8169C134.357 21.6432 133.917 21.5484 133.445 21.5484V21.201C133.917 21.201 134.341 21.1062 134.75 20.9325C135.144 20.7587 135.506 20.506 135.804 20.1901C136.103 19.8742 136.339 19.511 136.528 19.1003C136.701 18.6897 136.795 18.2317 136.795 17.742H137.189Z" fill="#21301B"/>
<path d="M167.895 13.8094C167.895 13.4935 167.785 13.1776 167.581 12.8617C167.376 12.53 167.125 12.2299 166.826 11.9456C166.527 11.6613 166.212 11.4244 165.85 11.2191C165.504 11.0296 165.19 10.9032 164.907 10.8558H175.179V29.1455C175.179 29.4614 175.289 29.7773 175.493 30.0932C175.698 30.4249 175.965 30.725 176.264 31.0093C176.579 31.2936 176.909 31.5463 177.255 31.7516C177.601 31.9569 177.916 32.0833 178.199 32.1465H167.895L167.864 29.1455C167.408 29.5088 166.841 29.8721 166.197 30.2353C165.552 30.5986 164.844 30.9303 164.089 31.2304C163.333 31.5305 162.547 31.7674 161.729 31.9569C160.911 32.1307 160.124 32.2096 159.354 32.1465C157.796 32.0991 156.553 31.8148 155.594 31.3094C154.634 30.8039 153.895 30.1248 153.376 29.2719C152.857 28.419 152.511 27.424 152.322 26.3026C152.133 25.1812 152.07 23.965 152.133 22.6699V14.0621C152.133 13.7304 152.039 13.3671 151.85 13.0038C151.661 12.6406 151.409 12.3089 151.111 12.0088C150.812 11.7087 150.481 11.456 150.12 11.2507C149.758 11.0454 149.427 10.919 149.113 10.8558H159.417V22.3066C159.417 23.0016 159.479 23.7439 159.605 24.502C159.731 25.2602 159.951 25.9867 160.25 26.6659C160.549 27.345 160.911 27.9294 161.351 28.419C161.792 28.9086 162.327 29.2561 162.956 29.4456C163.585 29.6352 164.309 29.651 165.127 29.4614C165.945 29.2719 166.857 28.8297 167.864 28.1031V13.8251L167.895 13.8094Z" fill="#21301B"/>
<path d="M187.008 13.8093C187.48 13.4776 188.047 13.1144 188.707 12.7511C189.368 12.3878 190.107 12.0562 190.878 11.7561C191.649 11.456 192.451 11.2191 193.269 11.0611C194.087 10.8874 194.874 10.8242 195.66 10.84C196.463 10.8716 197.249 10.9822 198.004 11.1875C198.759 11.3928 199.452 11.6929 200.065 12.1036C200.679 12.4984 201.198 13.0196 201.638 13.6356C202.079 14.2516 202.393 14.9939 202.613 15.8468C202.661 16.1311 202.724 16.4943 202.771 16.9208C202.818 17.3472 202.865 18.0106 202.881 18.9267C202.912 19.8427 202.928 21.0747 202.944 22.6383C202.944 24.2019 202.944 26.2868 202.928 28.8928C202.928 29.2561 203.022 29.6193 203.211 29.9826C203.4 30.3459 203.652 30.6776 203.951 30.9776C204.249 31.2777 204.564 31.5304 204.926 31.7358C205.272 31.9411 205.618 32.0674 205.948 32.1306H192.892C192.892 32.1306 193.065 32.0674 193.332 31.9095C193.6 31.7674 193.914 31.562 194.245 31.3093C194.575 31.0566 194.89 30.7249 195.157 30.3143C195.424 29.9194 195.566 29.4456 195.566 28.8928V20.6008C195.566 19.5426 195.409 18.437 195.11 17.3156C194.795 16.1943 194.308 15.2624 193.631 14.5359C192.955 13.8093 192.074 13.4145 190.988 13.3513C189.903 13.2881 188.582 13.7777 187.04 14.8044V32.1306H176.689C177.019 32.0832 177.381 31.9569 177.759 31.7358C178.136 31.5304 178.467 31.2777 178.75 30.9776C179.033 30.6776 179.269 30.3459 179.473 29.9826C179.662 29.6193 179.756 29.2561 179.756 28.8928V13.7935C179.756 13.4776 179.646 13.1618 179.426 12.8459C179.206 12.5142 178.938 12.2299 178.64 11.9456C178.325 11.6771 177.995 11.4402 177.649 11.2191C177.302 10.998 176.988 10.8874 176.705 10.8242H187.056V13.7777L187.008 13.8093Z" fill="#21301B"/>
<path d="M215.198 2.95874V12.9249H222.214V13.9041H215.198V23.5228C215.198 25.0549 215.34 26.4132 215.639 27.5977C215.938 28.7823 216.441 29.7299 217.149 30.4407C217.857 31.1514 218.801 31.6253 219.965 31.8464C221.129 32.0675 222.592 31.9885 224.338 31.5937V32.415C221.915 32.4939 219.697 32.5413 217.684 32.5729C215.686 32.6045 213.955 32.3834 212.508 31.9096C211.061 31.4357 209.928 30.5986 209.11 29.3983C208.292 28.1979 207.883 26.3816 207.883 23.9651V13.9199H204.863V12.9407H207.883V5.94385C207.883 5.69114 207.773 5.39105 207.569 5.07517C207.364 4.74349 207.097 4.4434 206.798 4.14331C206.483 3.84322 206.153 3.59051 205.807 3.38518C205.461 3.17986 205.146 3.03771 204.863 2.95874H215.167H215.198Z" fill="#21301B"/>
<path d="M235.349 32.5413C232.534 32.4623 230.19 31.8779 228.318 30.7724C226.446 29.6668 225.046 28.3085 224.118 26.6816C223.189 25.0548 222.718 23.3175 222.718 21.4538C222.718 19.59 223.189 17.8369 224.118 16.2259C225.046 14.5991 226.446 13.2408 228.318 12.1352C230.19 11.0296 232.534 10.4452 235.349 10.3662C237.033 10.3662 238.448 10.7295 239.597 11.456C240.745 12.1825 241.673 13.1144 242.381 14.2516C243.089 15.3888 243.592 16.6681 243.891 18.0738C244.19 19.4795 244.332 20.8694 244.332 22.2751H229.529C229.576 23.2385 229.702 24.1704 229.891 25.1022C230.08 26.0183 230.363 26.9028 230.725 27.7241C231.244 28.9244 231.904 29.8405 232.722 30.5038C233.54 31.1672 234.406 31.5937 235.334 31.7674C236.262 31.9569 237.206 31.9095 238.15 31.6726C239.093 31.4199 239.943 30.9777 240.682 30.3459C241.437 29.7141 242.051 28.9086 242.523 27.9294C242.995 26.9501 243.246 25.8446 243.246 24.5968H244.363L244.127 32.1149L238.511 32.1464C238.055 32.2728 237.552 32.3676 237.033 32.4465C236.513 32.5097 235.947 32.5413 235.334 32.5413H235.349ZM240.242 21.28C240.32 20.3008 240.273 19.211 240.084 18.0264C239.896 16.8418 239.597 15.752 239.172 14.757C238.747 13.762 238.197 12.9407 237.536 12.2931C236.875 11.6455 236.104 11.3455 235.224 11.3928C234.248 11.4402 233.383 11.8035 232.659 12.4668C231.936 13.1302 231.322 13.9357 230.835 14.8992C230.347 15.8626 229.985 16.905 229.765 18.058C229.545 19.1952 229.466 20.2692 229.513 21.28H240.21H240.242Z" fill="#21301B"/>
<path d="M254.541 28.8297C254.541 29.1929 254.635 29.5562 254.84 29.9195C255.029 30.2827 255.28 30.6144 255.579 30.9145C255.878 31.2146 256.193 31.4673 256.555 31.6884C256.916 31.9095 257.247 32.0517 257.577 32.1307H244.159C244.521 32.0517 244.882 31.9095 245.244 31.6884C245.606 31.4673 245.936 31.2146 246.235 30.9145C246.534 30.6144 246.77 30.2827 246.975 29.9195C247.163 29.5562 247.258 29.1929 247.258 28.8297V13.8094C247.258 13.4935 247.148 13.1776 246.927 12.8617C246.707 12.53 246.44 12.2299 246.141 11.9456C245.826 11.6613 245.496 11.4244 245.134 11.2191C244.772 11.0296 244.442 10.9032 244.159 10.8558H254.541V12.4984C254.982 12.0088 255.548 11.614 256.24 11.3139C256.932 11.0138 257.797 10.8716 258.836 10.8716H264.735L264.074 17.9948H262.91C262.705 16.7787 262.359 15.7205 261.856 14.8202C261.368 13.9199 260.802 13.225 260.188 12.7196C259.575 12.2141 258.93 11.9298 258.269 11.8509C257.609 11.7719 257.011 11.9456 256.46 12.3721C255.91 12.7985 255.469 13.4935 255.107 14.4727C254.746 15.452 254.557 16.7313 254.525 18.3107V28.8612L254.541 28.8297Z" fill="#21301B"/>
<path d="M18.4365 35.0051C17.5713 35.0051 16.7218 34.9577 15.9038 34.863C13.3869 34.5629 11.1373 33.8837 9.20244 32.8729C7.25182 31.8463 5.56861 30.5196 4.21576 28.9243C2.89436 27.3607 1.85613 25.6076 1.16397 23.7281C0.471811 21.8643 0.0785396 19.9058 -0.000114738 17.9316C-0.0787691 15.9415 0.172925 13.9672 0.754967 12.0719C1.33701 10.1608 2.23367 8.37607 3.44495 6.74926C4.68768 5.07507 6.2765 3.66939 8.16421 2.56379C10.0676 1.4424 12.27 0.684279 14.7397 0.273629C15.8566 0.0840981 17.0364 0.00512695 18.2792 0.00512695C19.6949 0.00512695 21.2051 0.131481 22.7782 0.368394H32.138C32.783 0.368394 33.3808 0.636896 33.8213 1.11072C34.2617 1.58455 34.4662 2.21632 34.4033 2.86388L33.428 12.6721C33.3179 13.8409 32.3425 14.7253 31.1785 14.7253H29.6998C28.6143 14.7253 27.6862 13.9672 27.4817 12.8932C27.3244 12.1035 26.9783 11.2348 26.4592 10.3345C25.9244 9.40269 25.2479 8.5498 24.4771 7.79168C23.7063 7.04935 22.8254 6.43338 21.8658 5.94376C21.0006 5.51731 20.1354 5.29619 19.2073 5.29619C18.5308 5.31199 17.8387 5.50152 17.1308 5.89637C16.4386 6.27543 15.8251 6.85982 15.2903 7.69691C14.5981 8.72354 14.0633 9.93969 13.6857 11.3138C13.2925 12.7827 13.0408 14.3463 12.9621 15.9731C12.8835 17.5999 12.9621 19.2425 13.2138 20.8377C13.4498 22.4013 13.8588 23.8386 14.4251 25.1337C14.9757 26.3815 15.6836 27.3607 16.533 28.0241C17.414 28.719 18.3263 29.1455 19.3331 29.335C19.7579 29.414 20.1983 29.4614 20.6388 29.4614C21.2366 29.4614 21.8658 29.3824 22.495 29.2244C23.6119 28.9401 24.6816 28.4505 25.6412 27.7714C26.6008 27.0922 27.4345 26.1919 28.1267 25.1021C28.8031 24.0439 29.2436 22.7962 29.4638 21.3747C29.6368 20.2533 30.5964 19.432 31.6976 19.432C31.7605 19.432 31.8392 19.432 31.9021 19.432C33.0976 19.5426 33.9943 20.5692 33.9628 21.7696L33.6167 32.1622C33.5696 33.3941 32.5785 34.3576 31.3515 34.3576H23.9423C22.0074 34.7366 20.1669 34.942 18.4522 34.942L18.4365 35.0051Z" fill="#203018"/>
<path d="M39.9248 34.4207C37.6438 34.4207 35.7719 34.0101 34.2774 33.1572C32.7358 32.2885 31.6032 31.1513 30.8953 29.7614C30.1874 28.3873 29.92 26.8869 30.0773 25.2917C30.2346 23.7912 30.7223 22.3855 31.556 21.1062C31.6976 20.8851 31.8549 20.664 32.0122 20.4586C31.6189 20.0006 31.3987 19.4004 31.4459 18.7687L32.1066 10.8715C32.201 9.70277 33.1605 8.8025 34.3246 8.7867L40.554 8.67614C40.554 8.67614 40.617 8.67614 40.6484 8.67614C41.9856 8.36026 43.3069 8.18652 44.5654 8.18652C45.1475 8.18652 45.7452 8.21811 46.3115 8.29708C48.2464 8.534 49.9611 9.16577 51.4398 10.1766C52.9342 11.2032 54.1141 12.5773 54.9635 14.2989C55.7815 15.9731 56.2063 17.9631 56.2063 20.1901V28.9401C56.3164 29.1297 56.4265 29.2718 56.5681 29.414C56.7411 29.5877 56.8984 29.714 57.0872 29.8246C57.2288 29.9036 57.3074 29.9194 57.3074 29.9194C58.4715 30.0931 59.3052 31.1513 59.2266 32.3359C59.1322 33.5205 58.1569 34.4365 56.9613 34.4365H46.579C45.9969 34.4365 45.4778 34.2154 45.0688 33.8679C44.6755 33.9627 44.298 34.0575 43.889 34.1364C42.7878 34.3418 41.608 34.4523 40.381 34.4523H39.9248V34.4207ZM44.298 22.2592C43.9834 22.3224 43.6845 22.4013 43.4328 22.5119C42.8822 22.733 42.4418 23.0173 42.1114 23.3648C41.7968 23.6965 41.5766 24.0597 41.435 24.4704C41.2777 24.9126 41.2305 25.3548 41.2619 25.7971C41.3563 26.9974 41.6237 27.4713 41.7024 27.5818C41.9226 27.9135 42.1271 28.0083 42.2687 28.0399C42.4889 28.103 42.7249 28.1504 42.9923 28.1504C43.1811 28.1504 43.3699 28.1346 43.5744 28.103C43.8103 28.0715 44.0463 28.0241 44.2823 27.9767V22.275L44.298 22.2592ZM43.0081 13.3828C42.7092 13.3828 42.3631 13.4618 41.9541 13.6197C41.199 13.9198 40.4439 14.3779 39.7046 14.9938C39.0596 15.5308 38.4304 16.1468 37.8326 16.826C38.509 16.6996 39.2327 16.6206 39.9877 16.6206H44.3137C44.2508 14.8517 43.9205 14.1094 43.7946 13.8882C43.6688 13.6829 43.4957 13.446 43.3069 13.3986C43.2283 13.3828 43.1339 13.367 43.0395 13.367L43.0081 13.3828Z" fill="#203018"/>
<path d="M55.5613 34.4208C54.3972 34.4208 53.4376 33.5363 53.3118 32.3833C53.1859 31.2303 53.9567 30.1563 55.0894 29.9194C55.1995 29.8878 55.3253 29.8404 55.4826 29.7457C55.6871 29.6193 55.8759 29.4772 56.049 29.3034C56.1905 29.1613 56.3006 29.0191 56.395 28.8454V14.0462C56.3006 13.8883 56.1748 13.7461 56.0175 13.6198C55.8444 13.4618 55.6714 13.3355 55.4669 13.2249C55.2624 13.1144 55.1523 13.0828 55.1523 13.0828C54.0354 12.8301 53.2331 11.7561 53.359 10.6031C53.4848 9.4501 54.4129 8.58142 55.5613 8.58142H65.9437C66.447 8.58142 66.9032 8.73936 67.2808 9.02366C68.146 8.73936 69.137 8.58142 70.2539 8.58142H76.153C76.798 8.58142 77.3957 8.84992 77.8205 9.32375C78.2452 9.79758 78.4654 10.4293 78.4025 11.0611L77.7418 18.1843C77.6317 19.3531 76.6564 20.2534 75.4923 20.2534H74.3282C73.2271 20.2534 72.2832 19.4478 72.0944 18.358C71.9371 17.3946 71.6697 16.5733 71.2922 15.8941C70.9461 15.2624 70.5685 14.7728 70.1753 14.4569C69.8921 14.2358 69.6404 14.1094 69.4202 14.0778C69.2157 14.1884 68.9483 14.4411 68.6494 15.2466C68.4606 15.752 68.2404 16.6839 68.2089 18.3265V28.8454C68.319 29.0349 68.4291 29.1771 68.5707 29.3192C68.7438 29.493 68.9483 29.6509 69.1528 29.7773C69.3258 29.8878 69.4359 29.9194 69.4831 29.9352C70.6 30.1879 71.3551 31.2619 71.2292 32.4149C71.1034 33.5679 70.1281 34.4366 68.9797 34.4366H55.5613V34.4208Z" fill="#203018"/>
<path d="M85.2612 34.4682C84.0184 34.4682 82.8229 34.3102 81.6902 34.0259C80.3217 33.6785 79.1418 33.0783 78.1665 32.2728C77.2069 31.4831 76.4204 30.5038 75.8384 29.3666C75.2878 28.3084 74.8945 27.1397 74.6585 25.9077C74.4383 24.7073 74.3597 23.428 74.4226 22.1329C74.5012 20.8693 74.69 19.6058 75.0204 18.3739C75.4451 16.6523 76.1372 15.1518 77.0496 13.9357C77.9306 12.7669 78.9531 11.7877 80.0857 11.0453C81.1869 10.3188 82.3352 9.76601 83.5308 9.38694C84.6319 9.03947 85.7174 8.78676 86.7556 8.64461C87.7781 8.50247 88.7219 8.4235 89.5557 8.4235H89.9804V6.19651C89.886 6.05436 89.7602 5.92801 89.6343 5.80165C89.4456 5.62792 89.2411 5.46998 89.0208 5.34362C88.7691 5.20147 88.6433 5.15409 88.6276 5.15409C87.5264 4.854 86.8342 3.77999 86.9758 2.6586C87.1174 1.53721 88.0927 0.684326 89.2253 0.684326H99.529C100.788 0.684326 101.794 1.69516 101.794 2.95869V28.9244C101.904 29.1139 102.015 29.2561 102.156 29.3982C102.329 29.572 102.486 29.6983 102.675 29.8089C102.817 29.8878 102.895 29.9036 102.895 29.9036C104.06 30.0774 104.909 31.1356 104.815 32.3202C104.72 33.5047 103.745 34.4208 102.549 34.4208H92.2299C91.5692 34.4208 90.9872 34.1365 90.5625 33.6943C90.2321 33.789 89.9018 33.8838 89.5557 33.9628C88.25 34.2628 86.9129 34.4366 85.6072 34.4682H85.2612ZM89.9647 14.1094C89.7444 14.1884 89.5242 14.2832 89.3197 14.4095C88.659 14.8044 88.0612 15.3572 87.5421 16.0205C86.9915 16.7471 86.5354 17.5841 86.1893 18.5002C85.8275 19.4795 85.5758 20.4903 85.4499 21.5169C85.3241 22.5119 85.3241 23.4912 85.4499 24.4072C85.5758 25.2601 85.8275 25.9867 86.2207 26.65C86.6769 27.5029 87.0387 27.8504 87.2747 27.9925C87.6208 28.2137 87.9354 28.3242 88.25 28.3558C88.3287 28.3558 88.4073 28.3558 88.486 28.3558C88.8321 28.3558 89.1624 28.3084 89.5242 28.1821C89.6658 28.1347 89.8231 28.0873 89.9647 28.0399V14.0936V14.1094Z" fill="#203018"/>
<path d="M114.489 34.7998C111.327 34.705 108.606 34.01 106.403 32.7149C104.201 31.4198 102.502 29.7614 101.385 27.8029C100.253 25.8444 99.6863 23.6964 99.6863 21.4378C99.6863 19.1793 100.253 17.0313 101.385 15.0728C102.518 13.1143 104.201 11.4559 106.403 10.1608C108.606 8.86564 111.311 8.17069 114.489 8.07593H114.505C115.118 8.07593 115.653 8.12331 116.172 8.20228C116.565 8.26546 116.927 8.34443 117.289 8.4234H123.975C124.62 8.4234 125.217 8.6919 125.642 9.16573C126.067 9.63956 126.287 10.2713 126.224 10.9031L125.564 18.0263C125.453 19.1951 124.478 20.0953 123.314 20.0953H122.197C121.112 20.0953 120.184 19.3372 119.979 18.2632C119.869 17.7262 119.649 17.1734 119.334 16.6048C118.988 16.0046 118.563 15.436 118.076 14.9306C117.604 14.441 117.069 14.0304 116.487 13.7145C115.999 13.446 115.527 13.288 115.055 13.2564H114.898C114.568 13.2564 114.237 13.3354 113.876 13.5091C113.482 13.6987 113.089 14.1093 112.696 14.7095C112.208 15.4202 111.846 16.2257 111.579 17.1576C111.296 18.1842 111.123 19.274 111.06 20.4112C110.997 21.5642 111.06 22.7014 111.248 23.8228C111.422 24.9126 111.705 25.9076 112.098 26.7921C112.475 27.645 112.916 28.2925 113.451 28.719C113.97 29.1454 114.505 29.4139 115.071 29.5245C115.323 29.5719 115.574 29.6035 115.826 29.6035C116.172 29.6035 116.518 29.5561 116.88 29.4613C117.509 29.3034 118.06 29.0191 118.563 28.5926C119.082 28.1662 119.491 27.6292 119.806 26.95C120.121 26.2867 120.278 25.5127 120.278 24.6125C120.278 23.3489 121.285 22.3381 122.543 22.3381H123.629C124.242 22.3381 124.824 22.5908 125.249 23.0331C125.674 23.4753 125.91 24.0597 125.894 24.6757L125.705 32.1937C125.674 33.4257 124.683 34.4049 123.456 34.4049L118.091 34.4365C117.619 34.5628 117.116 34.6576 116.581 34.7208C115.936 34.7998 115.26 34.8313 114.568 34.8313C114.552 34.8313 114.52 34.8313 114.505 34.8313L114.489 34.7998Z" fill="#203018"/>
<path d="M136.953 34.7998C134.593 34.7366 132.454 34.326 130.613 33.552C128.757 32.7781 127.184 31.7673 125.941 30.5196C124.683 29.2718 123.707 27.8345 123.078 26.2551C122.433 24.6915 122.119 23.0647 122.119 21.4063C122.119 19.7479 122.449 18.1211 123.078 16.5417C123.723 14.9465 124.683 13.5092 125.957 12.2614C127.2 11.0295 128.773 10.0029 130.613 9.22894C132.438 8.45503 134.578 8.04438 136.969 7.9812C139.47 8.04438 141.609 8.45503 143.45 9.22894C145.29 10.0029 146.848 11.0137 148.106 12.2614C149.365 13.5092 150.34 14.9622 150.985 16.5417C151.63 18.1211 151.944 19.7637 151.944 21.4063C151.944 23.0489 151.614 24.6915 150.985 26.2551C150.34 27.8345 149.38 29.2718 148.122 30.5196C146.863 31.7673 145.29 32.7781 143.45 33.552C141.609 34.3102 139.47 34.7366 137.11 34.7998C137.094 34.7998 137.079 34.7998 137.047 34.7998C137.016 34.7998 137.016 34.7998 136.984 34.7998H136.953ZM133.177 23.8228C133.335 24.9126 133.618 25.9076 133.995 26.7921C134.452 27.8187 134.987 28.5927 135.6 29.0507C136.088 29.414 136.528 29.6035 136.969 29.6035C137.488 29.6035 137.975 29.3824 138.494 28.9717C139.092 28.4821 139.627 27.7082 140.068 26.6658C140.414 25.8445 140.665 24.881 140.838 23.8228C140.76 23.8228 140.681 23.8228 140.602 23.8228C140.445 23.8228 140.319 23.8544 140.193 23.9018C140.036 23.965 139.91 24.0597 139.8 24.1703C139.69 24.2808 139.611 24.4072 139.533 24.5651C139.47 24.6915 139.454 24.8336 139.454 24.9758C139.454 26.2393 138.447 27.2502 137.189 27.2502H136.796C135.537 27.2502 134.53 26.2393 134.53 24.9758C134.53 24.8178 134.499 24.6915 134.452 24.5651C134.373 24.4072 134.294 24.265 134.169 24.1387C134.074 24.0439 133.964 23.965 133.822 23.9018C133.712 23.8544 133.602 23.8386 133.461 23.8386C133.366 23.8386 133.256 23.8386 133.162 23.8228C133.162 23.8228 133.162 23.8228 133.162 23.8386L133.177 23.8228ZM137.016 13.1617C136.607 13.1617 136.214 13.2723 135.805 13.5092C135.364 13.7461 134.971 14.1409 134.593 14.678C134.153 15.3413 133.775 16.1626 133.508 17.1261C133.335 17.7262 133.209 18.3422 133.115 18.974C133.225 18.9582 133.335 18.9424 133.445 18.9424C133.586 18.9424 133.712 18.9266 133.807 18.8792C133.948 18.816 134.058 18.7371 134.153 18.6423C134.263 18.5159 134.357 18.3896 134.436 18.2159C134.483 18.0895 134.515 17.9474 134.515 17.7736C134.515 16.5101 135.521 15.4993 136.78 15.4993H137.173C138.432 15.4993 139.438 16.5101 139.438 17.7736C139.438 17.9474 139.47 18.0895 139.517 18.2159C139.58 18.3738 139.674 18.5002 139.784 18.6107C139.895 18.7213 140.02 18.8002 140.178 18.8792C140.304 18.9424 140.445 18.9582 140.587 18.9582C140.681 18.9582 140.775 18.9582 140.87 18.974C140.775 18.3106 140.634 17.6631 140.461 17.0471C140.193 16.1152 139.832 15.3097 139.391 14.6622C139.029 14.1252 138.652 13.7619 138.211 13.525C137.802 13.2881 137.393 13.1775 137 13.1775L137.016 13.1617Z" fill="#203018"/>
<path d="M159.888 34.4365C159.668 34.4365 159.448 34.4365 159.228 34.4207C157.387 34.3575 155.83 33.9943 154.556 33.3309C153.234 32.6359 152.196 31.6725 151.472 30.4563C150.812 29.3508 150.355 28.0714 150.119 26.6657C149.915 25.3864 149.836 24.0123 149.899 22.575V14.0619C149.789 13.9198 149.679 13.7619 149.537 13.6197C149.38 13.4618 149.207 13.3354 149.034 13.2248C148.861 13.1301 148.767 13.0985 148.767 13.0985C147.634 12.8458 146.832 11.7718 146.958 10.6188C147.083 9.46582 147.996 8.58135 149.16 8.58135H159.464C160.706 8.58135 161.729 9.59218 161.729 10.8557V22.3065C161.729 22.8751 161.776 23.4911 161.886 24.1229C161.981 24.6915 162.138 25.2443 162.358 25.7497C162.563 26.2077 162.799 26.5868 163.082 26.9026C163.255 27.0922 163.428 27.2027 163.664 27.2817C163.774 27.3133 163.915 27.3291 164.057 27.3291C164.246 27.3291 164.45 27.2975 164.686 27.2501C164.906 27.2027 165.221 27.0922 165.646 26.8553V14.0146C165.536 13.8566 165.426 13.7145 165.268 13.5881C165.111 13.446 164.954 13.3196 164.765 13.2091C164.592 13.1143 164.497 13.0827 164.497 13.0827C163.381 12.8142 162.594 11.7244 162.736 10.5872C162.877 9.45003 163.774 8.56555 164.922 8.56555H175.194C176.437 8.56555 177.46 9.57638 177.46 10.8399V28.9243C177.554 29.0665 177.664 29.1928 177.806 29.3192C177.995 29.4929 178.199 29.6508 178.419 29.7772C178.577 29.872 178.64 29.8878 178.64 29.8878C179.788 30.0931 180.59 31.1513 180.48 32.3201C180.37 33.4888 179.379 34.3891 178.215 34.3891H167.911C166.951 34.3891 166.134 33.7889 165.803 32.9518C165.52 33.0782 165.237 33.2045 164.938 33.3151C164.073 33.6626 163.16 33.9311 162.248 34.1364C161.461 34.3101 160.675 34.4049 159.904 34.4049L159.888 34.4365Z" fill="#203018"/>
<path d="M192.86 34.4208C191.618 34.4208 190.595 33.4099 190.595 32.1464C190.595 31.1672 191.209 30.3459 192.058 30.0142L192.247 29.9194C192.436 29.8247 192.624 29.6983 192.829 29.5246C192.97 29.414 193.112 29.2561 193.254 29.0665V20.6324C193.269 19.7795 193.144 18.8793 192.892 17.9474C192.687 17.1893 192.357 16.5575 191.948 16.1153C191.775 15.9257 191.476 15.6888 190.831 15.6572C190.595 15.6572 190.107 15.7204 189.289 16.1311V32.1622C189.289 33.4257 188.267 34.4366 187.024 34.4366H176.673C175.493 34.4366 174.502 33.5205 174.408 32.3359C174.314 31.1514 175.147 30.0932 176.327 29.9194C176.327 29.9194 176.437 29.9036 176.642 29.7931C176.815 29.6983 176.972 29.5877 177.098 29.4456C177.24 29.3034 177.365 29.1297 177.46 28.9402V14.062C177.381 13.9199 177.255 13.8093 177.129 13.683C176.925 13.5092 176.705 13.3513 176.485 13.2091C176.327 13.1144 176.249 13.0986 176.249 13.0986C175.1 12.8932 174.314 11.835 174.408 10.6663C174.518 9.49749 175.509 8.59722 176.673 8.59722H187.024C187.984 8.59722 188.818 9.1974 189.132 10.0503C189.447 9.90814 189.761 9.78178 190.076 9.65543C190.957 9.30796 191.885 9.03945 192.813 8.84992C193.663 8.67619 194.528 8.58142 195.346 8.58142H195.723C196.699 8.61301 197.658 8.77095 198.586 9.00786C199.577 9.27637 200.49 9.68702 201.292 10.224C202.142 10.7768 202.865 11.5034 203.463 12.3404C204.061 13.1933 204.517 14.2042 204.784 15.3413C204.863 15.7836 204.926 16.1942 204.989 16.6681C205.052 17.1419 205.099 17.8842 205.115 18.8793C205.146 19.7953 205.162 21.0589 205.178 22.6383C205.178 24.2177 205.178 26.3183 205.162 28.9244C205.272 29.0823 205.382 29.2403 205.524 29.3666C205.697 29.5404 205.87 29.6667 206.043 29.7773C206.184 29.8562 206.263 29.872 206.263 29.872C207.427 30.0458 208.277 31.104 208.182 32.2886C208.088 33.4731 207.113 34.3892 205.917 34.3892H192.86V34.4208Z" fill="#203018"/>
<path d="M217.385 34.8156C215.292 34.8156 213.421 34.5629 211.832 34.0416C209.897 33.4099 208.355 32.2727 207.254 30.6459C206.169 29.0349 205.649 26.8395 205.649 23.9333V16.1626H204.894C203.652 16.1626 202.629 15.1518 202.629 13.8882V12.909C202.629 11.6454 203.652 10.6346 204.894 10.6346H205.649V6.22802C205.539 6.07008 205.414 5.91214 205.256 5.76999C205.067 5.59625 204.879 5.43831 204.674 5.32775C204.422 5.1856 204.297 5.13822 204.281 5.13822C203.18 4.83813 202.488 3.76412 202.629 2.64274C202.786 1.52135 203.746 0.668457 204.879 0.668457H215.182C216.425 0.668457 217.448 1.67929 217.448 2.94283V10.6346H222.198C223.441 10.6346 224.464 11.6454 224.464 12.909V13.8882C224.464 15.1518 223.441 16.1626 222.198 16.1626H217.448V23.5069C217.448 24.8336 217.573 26.0182 217.825 27.0132C218.014 27.7871 218.329 28.3873 218.738 28.798C219.131 29.1928 219.65 29.4455 220.374 29.5719C220.657 29.6193 220.971 29.6509 221.333 29.6509C222.041 29.6509 222.891 29.5403 223.85 29.335C224.007 29.3034 224.18 29.2876 224.338 29.2876C224.857 29.2876 225.345 29.4613 225.754 29.793C226.288 30.2194 226.603 30.8828 226.603 31.562V32.3833C226.603 33.6152 225.628 34.6102 224.416 34.6576C221.978 34.7366 219.744 34.784 217.731 34.8156H217.4H217.385Z" fill="#203018"/>
<path d="M235.286 34.7998C232.093 34.705 229.372 34.01 227.169 32.7149C224.967 31.4198 223.268 29.7614 222.151 27.8029C221.018 25.8444 220.452 23.6964 220.452 21.4378C220.452 19.1793 221.018 17.0313 222.151 15.0728C223.284 13.1143 224.967 11.4559 227.169 10.1608C229.372 8.86564 232.093 8.17069 235.286 8.07593C237.457 8.07593 239.282 8.56555 240.792 9.5132C242.224 10.4135 243.403 11.598 244.3 13.0353C245.15 14.3936 245.763 15.9257 246.109 17.5841C246.44 19.1319 246.613 20.7113 246.613 22.2591C246.613 22.6698 246.502 23.0646 246.314 23.3963C246.55 23.7754 246.676 24.2176 246.66 24.6757L246.424 32.1937C246.392 33.4099 245.386 34.3891 244.174 34.4049L238.842 34.4365C238.37 34.547 237.866 34.6418 237.347 34.705C236.734 34.784 236.057 34.8155 235.365 34.8155C235.349 34.8155 235.318 34.8155 235.302 34.8155L235.286 34.7998ZM232.124 24.6125C232.282 25.3706 232.518 26.1129 232.817 26.7921C233.194 27.645 233.635 28.2925 234.169 28.719C234.689 29.1454 235.223 29.4139 235.79 29.5245C236.041 29.5719 236.293 29.6035 236.545 29.6035C236.891 29.6035 237.237 29.5561 237.599 29.4613C238.212 29.3034 238.747 29.0191 239.251 28.6084C239.77 28.1662 240.179 27.6292 240.525 26.9342C240.855 26.2709 241.012 25.5128 241.012 24.6125C241.012 24.5967 241.012 24.5651 241.012 24.5493H232.124C232.124 24.5493 232.124 24.5967 232.14 24.6283L232.124 24.6125ZM237.929 19.0055C237.913 18.8002 237.882 18.5949 237.85 18.3738C237.693 17.3945 237.441 16.4785 237.095 15.6572C236.781 14.9464 236.403 14.3462 235.963 13.9198C235.727 13.6829 235.57 13.6671 235.428 13.6671H235.365C234.893 13.6987 234.531 13.8408 234.201 14.1567C233.682 14.6305 233.226 15.2307 232.864 15.9415C232.471 16.6996 232.187 17.5683 232.014 18.4843C231.983 18.6581 231.951 18.8318 231.92 19.0055H237.929Z" fill="#203018"/>
<path d="M244.143 34.4208C242.979 34.4208 242.019 33.5363 241.893 32.3833C241.767 31.2303 242.538 30.1563 243.671 29.9194C243.781 29.8878 243.907 29.8404 244.064 29.7457C244.269 29.6193 244.457 29.4772 244.63 29.3034C244.772 29.1613 244.882 29.0191 244.961 28.8454V14.0462C244.866 13.9041 244.741 13.7461 244.583 13.6198C244.41 13.4618 244.237 13.3355 244.033 13.2249C243.828 13.1144 243.718 13.0828 243.718 13.0828C242.601 12.8301 241.799 11.7561 241.925 10.6031C242.051 9.4501 242.979 8.58142 244.127 8.58142H254.509C255.013 8.58142 255.469 8.73936 255.847 9.02366C256.712 8.73936 257.703 8.58142 258.82 8.58142H264.719C265.364 8.58142 265.962 8.84992 266.386 9.32375C266.811 9.79758 267.031 10.4293 266.968 11.0611L266.308 18.1843C266.197 19.3531 265.222 20.2534 264.058 20.2534H262.894C261.793 20.2534 260.849 19.4478 260.66 18.358C260.503 17.3946 260.236 16.5733 259.858 15.8941C259.512 15.2624 259.134 14.7728 258.741 14.4569C258.458 14.2358 258.206 14.1094 257.986 14.0778C257.781 14.1884 257.514 14.4411 257.215 15.2466C257.026 15.752 256.806 16.6839 256.775 18.3265V28.8296C256.885 29.0191 256.995 29.1613 257.137 29.3034C257.31 29.4772 257.498 29.6351 257.719 29.7615C257.892 29.872 258.002 29.9036 258.049 29.9194C259.166 30.1721 259.921 31.2461 259.795 32.3991C259.669 33.5521 258.694 34.4208 257.546 34.4208H244.127H244.143Z" fill="#203018"/>
<path d="M18.4366 33.5205C17.6343 33.5205 16.832 33.4731 16.077 33.3783C13.7488 33.094 11.6566 32.4781 9.87899 31.5462C8.08567 30.6143 6.55978 29.3982 5.33277 27.9451C4.12149 26.5078 3.17764 24.9126 2.53267 23.1911C1.90344 21.4853 1.54163 19.6847 1.47871 17.8684C1.41578 16.0363 1.63601 14.2357 2.17086 12.4826C2.70571 10.7452 3.52372 9.10261 4.64061 7.60216C5.7575 6.10171 7.20474 4.82237 8.93514 3.81154C10.6498 2.80071 12.6791 2.10577 14.9758 1.72671C16.014 1.55297 17.1152 1.474 18.2793 1.474C19.6636 1.474 21.1738 1.60035 22.7311 1.85306H32.1382C32.3584 1.85306 32.5786 1.93203 32.7202 2.10577C32.8618 2.2795 32.9404 2.50062 32.9247 2.72174L31.9494 12.53C31.9022 12.9406 31.5719 13.2407 31.1629 13.2407H29.6842C29.3066 13.2407 28.9763 12.9722 28.9133 12.6089C28.7246 11.6613 28.3156 10.6504 27.7178 9.59223C27.1043 8.53402 26.3492 7.57057 25.4683 6.71768C24.5874 5.86479 23.5806 5.16985 22.4794 4.61705C21.4254 4.09584 20.3086 3.82734 19.1759 3.82734C18.2478 3.84313 17.304 4.11163 16.3916 4.60126C15.4949 5.09088 14.6926 5.86479 14.0162 6.89142C13.2297 8.0444 12.6319 9.4027 12.2229 10.9347C11.7982 12.4984 11.5465 14.1726 11.4521 15.9099C11.3577 17.6315 11.4521 19.3846 11.7195 21.0746C11.9869 22.7646 12.4274 24.3282 13.0409 25.7497C13.6859 27.2344 14.5353 28.4031 15.5893 29.2087C16.6433 30.03 17.7916 30.567 19.0186 30.8039C19.5377 30.8986 20.0726 30.9618 20.6074 30.9618C21.3311 30.9618 22.0704 30.867 22.8098 30.6775C24.1154 30.3458 25.3424 29.793 26.4593 28.9875C27.5762 28.1978 28.5358 27.1554 29.3381 25.9235C30.1246 24.6915 30.6437 23.2384 30.8954 21.6274C30.9583 21.2326 31.2887 20.9483 31.682 20.9483C31.7134 20.9483 31.7292 20.9483 31.7606 20.9483C32.1854 20.9799 32.5 21.3431 32.4842 21.7696L32.1382 32.1622C32.1382 32.5886 31.7764 32.9361 31.3516 32.9361H23.8008C21.9131 33.3152 20.1198 33.5205 18.468 33.5205H18.4366Z" fill="#59422A"/>
<path d="M39.9565 32.936C37.9272 32.936 36.2597 32.5728 34.9855 31.862C33.7113 31.1355 32.7675 30.2036 32.1854 29.0822C31.6191 27.9609 31.3832 26.7447 31.5248 25.4496C31.6506 24.186 32.0753 23.0015 32.7675 21.9117C33.4597 20.8219 34.435 19.9058 35.6462 19.2109C36.8732 18.5001 38.3205 18.1368 39.9565 18.1368H45.7612V16.668C45.714 15.0728 45.4623 13.8882 45.0218 13.1459C44.6128 12.4825 44.1409 12.1035 43.5746 11.9771C43.3858 11.9455 43.1971 11.9139 42.9926 11.9139C42.5049 11.9139 41.97 12.0245 41.388 12.2614C40.5071 12.6247 39.6104 13.1617 38.7452 13.8724C37.8643 14.5989 37.0148 15.4518 36.244 16.4153C35.4732 17.3629 34.844 18.3264 34.3878 19.3056C34.2619 19.5899 33.9788 19.7637 33.6642 19.7637C33.6012 19.7637 33.5226 19.7637 33.4597 19.7321C33.0978 19.6373 32.8461 19.274 32.8776 18.895L33.5383 10.9979C33.5698 10.5872 33.9001 10.2713 34.3091 10.2713L40.6801 10.1608C40.6801 10.1608 40.806 10.1292 40.8689 10.1292C42.1274 9.82908 43.3386 9.67114 44.5184 9.67114C45.0533 9.67114 45.5724 9.70273 46.0915 9.76591C47.7905 9.97123 49.3006 10.524 50.5748 11.3927C51.8648 12.2772 52.8715 13.4618 53.6109 14.9464C54.3345 16.4153 54.6963 18.1842 54.6963 20.1901V28.9401C54.6963 29.177 54.7592 29.3981 54.8851 29.6508C55.0424 29.9509 55.2469 30.2194 55.4829 30.4563C55.7346 30.709 56.002 30.9144 56.3009 31.0881C56.5683 31.2461 56.8043 31.3408 57.0402 31.3724C57.4492 31.4356 57.7481 31.7988 57.7166 32.2253C57.6852 32.6359 57.3391 32.9676 56.9301 32.9676H46.5477C46.1073 32.9676 45.7612 32.6044 45.7612 32.1779V32.1463C45.069 32.3674 44.3454 32.557 43.6061 32.6991C42.5993 32.8887 41.5139 32.9834 40.3812 32.9834H39.9565V32.936ZM45.5567 20.6797C44.5342 20.6797 43.6218 20.8377 42.8667 21.1377C42.1274 21.4378 41.5139 21.8485 41.0419 22.3381C40.5857 22.8277 40.2397 23.3805 40.0352 23.9965C39.8307 24.6125 39.7363 25.26 39.7835 25.9076C39.8778 27.0448 40.1138 27.8977 40.4913 28.4347C40.8532 28.9559 41.2936 29.2876 41.8285 29.4613C42.1903 29.5719 42.5836 29.635 42.9926 29.635C43.2442 29.635 43.5117 29.6192 43.7948 29.5719C44.4241 29.4771 45.0848 29.3192 45.7612 29.1138V20.6797H45.541H45.5567Z" fill="#59422A"/>
<path d="M55.5614 32.9361C55.1524 32.9361 54.822 32.636 54.7748 32.2253C54.7276 31.8147 54.9951 31.4514 55.4041 31.3567C55.6715 31.2935 55.9546 31.1829 56.2378 31.0092C56.5367 30.8196 56.8198 30.5985 57.0715 30.3458C57.3075 30.1089 57.512 29.8404 57.6693 29.5403C57.7952 29.2876 57.8581 29.0665 57.8581 28.8296V13.8093C57.8581 13.6671 57.7952 13.4934 57.6693 13.3039C57.4805 13.0354 57.2603 12.7669 56.9929 12.5299C56.7412 12.293 56.4423 12.0877 56.1434 11.9298C55.8603 11.7718 55.6086 11.6771 55.4041 11.6455C54.9951 11.5665 54.7276 11.2032 54.7591 10.7926C54.7906 10.3819 55.1366 10.066 55.5456 10.066H65.928C66.3685 10.066 66.7146 10.4293 66.7146 10.8558C66.9033 10.761 67.1078 10.6662 67.3123 10.5715C68.0989 10.2398 69.0899 10.066 70.2225 10.066H76.1216C76.3418 10.066 76.5621 10.1608 76.7037 10.3187C76.861 10.4767 76.9239 10.6978 76.9082 10.9347L76.2475 18.0579C76.216 18.4686 75.8699 18.7845 75.4609 18.7845H74.2968C73.9036 18.7845 73.5732 18.5002 73.5103 18.1211C73.3215 16.9997 72.9912 16.0047 72.5507 15.1992C72.1102 14.3937 71.6226 13.7619 71.072 13.3354C70.5686 12.9248 70.0652 12.6879 69.5618 12.6405C69.4989 12.6405 69.4203 12.6405 69.3573 12.6405C68.9955 12.6405 68.6652 12.7669 68.3506 13.0196C67.9258 13.3512 67.5483 13.9514 67.2494 14.7727C66.9191 15.6572 66.746 16.8576 66.7146 18.3422V28.877C66.7146 29.1139 66.7775 29.335 66.9033 29.5877C67.0606 29.8878 67.2651 30.1563 67.5011 30.3932C67.7528 30.6459 68.0359 30.867 68.3348 31.0566C68.6023 31.2303 68.8697 31.3409 69.1214 31.404C69.5146 31.4988 69.7821 31.8621 69.7349 32.2727C69.6877 32.6676 69.3573 32.9835 68.9483 32.9835H55.5299L55.5614 32.9361Z" fill="#59422A"/>
<path d="M85.2613 32.9834C84.1444 32.9834 83.0747 32.8571 82.0522 32.5886C80.9038 32.2885 79.897 31.7989 79.0948 31.1355C78.2925 30.4722 77.6318 29.6509 77.1284 28.6874C76.6407 27.7556 76.2947 26.7289 76.0902 25.6233C75.8857 24.5335 75.8227 23.3964 75.8857 22.2118C75.9486 21.043 76.1374 19.89 76.4362 18.7529C76.8138 17.205 77.4273 15.8941 78.2138 14.8359C79.0004 13.7935 79.897 12.9406 80.8881 12.2772C81.8634 11.6297 82.9016 11.1242 83.9556 10.7926C84.9938 10.4767 86.0006 10.2398 86.9445 10.0976C87.8883 9.97126 88.7692 9.89229 89.54 9.89229H91.4435V5.97533C91.4435 5.81738 91.3806 5.64365 91.2547 5.45412C91.0817 5.18561 90.8772 4.93291 90.6097 4.69599C90.3423 4.44329 90.0592 4.23796 89.7446 4.04843C89.4614 3.87469 89.2097 3.76413 88.9895 3.70096C88.6119 3.5904 88.3602 3.22713 88.4074 2.83227C88.4546 2.43742 88.8007 2.13733 89.194 2.13733H99.4977C99.9382 2.13733 100.284 2.5006 100.284 2.92704V28.8927C100.284 29.1297 100.347 29.3508 100.473 29.6035C100.63 29.9036 100.835 30.1721 101.071 30.409C101.322 30.6617 101.59 30.867 101.889 31.0408C102.156 31.1987 102.392 31.2935 102.628 31.3251C103.037 31.3882 103.336 31.7515 103.305 32.1779C103.273 32.6044 102.927 32.9203 102.518 32.9203H92.1986C91.7581 32.9203 91.412 32.557 91.412 32.1306V31.8305C90.7199 32.099 89.9805 32.3201 89.2097 32.5096C87.9984 32.7939 86.7714 32.9519 85.5601 32.9834H85.2298H85.2613ZM91.0345 12.4668C90.1221 12.4668 89.3041 12.6879 88.5647 13.1301C87.7467 13.6197 87.0074 14.2831 86.3781 15.1202C85.7332 15.9573 85.1983 16.9207 84.8051 17.9947C84.3961 19.0687 84.1286 20.2059 83.9713 21.3431C83.8297 22.4645 83.8297 23.5859 83.9871 24.6441C84.1444 25.6707 84.459 26.6184 84.9466 27.4239C85.4186 28.2926 85.922 28.8927 86.4568 29.2402C87.0074 29.5877 87.558 29.793 88.1243 29.8404C88.2344 29.8404 88.3602 29.8404 88.4704 29.8404C88.958 29.8404 89.4457 29.7614 89.9491 29.6035C90.4524 29.4455 90.9558 29.2402 91.4278 29.0033V12.4668C91.4278 12.4668 91.0345 12.4668 91.0188 12.4668H91.0345Z" fill="#59422A"/>
<path d="M114.537 33.3309C111.626 33.2519 109.141 32.6202 107.159 31.4514C105.177 30.2826 103.666 28.8138 102.66 27.0764C101.669 25.339 101.165 23.4437 101.165 21.4379C101.165 19.432 101.669 17.5367 102.66 15.7993C103.651 14.0619 105.161 12.5931 107.159 11.4243C109.141 10.2555 111.626 9.62377 114.537 9.5448C115.04 9.5448 115.496 9.57639 115.952 9.65536C116.361 9.71854 116.739 9.79751 117.101 9.89227H123.975C124.195 9.89227 124.416 9.98704 124.557 10.145C124.714 10.3029 124.777 10.524 124.762 10.761L124.101 17.8842C124.069 18.2948 123.723 18.6107 123.314 18.6107H122.197C121.82 18.6107 121.49 18.3422 121.427 17.9631C121.285 17.2682 121.018 16.5732 120.624 15.8625C120.215 15.1517 119.728 14.4884 119.146 13.8882C118.564 13.3038 117.919 12.7984 117.211 12.4193C116.534 12.0561 115.858 11.835 115.181 11.7718C115.087 11.7718 114.993 11.7718 114.898 11.7718C114.348 11.7718 113.797 11.8981 113.247 12.1666C112.602 12.4825 112.004 13.0511 111.469 13.8882C110.918 14.6937 110.478 15.6414 110.163 16.747C109.849 17.8842 109.66 19.0845 109.597 20.3323C109.534 21.58 109.597 22.8277 109.802 24.0597C109.99 25.2758 110.321 26.3972 110.745 27.3923C111.202 28.4663 111.799 29.3034 112.507 29.872C113.215 30.4406 113.986 30.8196 114.772 30.9776C115.119 31.0407 115.465 31.0723 115.811 31.0723C116.283 31.0723 116.755 31.0091 117.226 30.8828C118.045 30.6617 118.815 30.2826 119.476 29.714C120.152 29.1612 120.703 28.4347 121.112 27.566C121.521 26.7131 121.726 25.7023 121.726 24.5809C121.726 24.1387 122.087 23.7912 122.512 23.7912H123.598C123.818 23.7912 124.022 23.8702 124.164 24.0281C124.321 24.186 124.4 24.3914 124.384 24.5967L124.195 32.1147C124.195 32.5412 123.833 32.8887 123.409 32.8887L117.856 32.9203C117.4 33.0466 116.912 33.1414 116.361 33.2045C115.779 33.2677 115.166 33.2993 114.521 33.2993H114.505L114.537 33.3309Z" fill="#59422A"/>
<path d="M136.984 33.3309C134.798 33.2836 132.847 32.8887 131.18 32.1938C129.497 31.4988 128.081 30.5827 126.98 29.4771C125.863 28.3716 125.013 27.108 124.431 25.7023C123.865 24.3124 123.582 22.8752 123.582 21.4063C123.582 19.9374 123.865 18.5002 124.431 17.0945C124.998 15.6888 125.847 14.4095 126.98 13.3039C128.097 12.1983 129.497 11.2822 131.164 10.5873C132.816 9.89231 134.782 9.51325 137 9.45007C139.25 9.49746 141.216 9.89231 142.868 10.5873C144.535 11.2822 145.935 12.1983 147.052 13.3039C148.169 14.4095 149.019 15.6888 149.601 17.0945C150.167 18.5002 150.45 19.9532 150.45 21.4063C150.45 22.8594 150.167 24.3124 149.601 25.7023C149.034 27.0922 148.169 28.3558 147.052 29.4771C145.935 30.5827 144.52 31.4988 142.852 32.1938C141.185 32.8887 139.218 33.2678 137.047 33.3309H137H136.984ZM137.016 11.6929C136.355 11.6929 135.726 11.8666 135.097 12.2141C134.452 12.5615 133.886 13.1143 133.398 13.8409C132.863 14.6464 132.423 15.6098 132.108 16.7154C131.793 17.8526 131.605 19.053 131.542 20.3007C131.479 21.5484 131.542 22.812 131.73 24.0597C131.919 25.2759 132.218 26.3973 132.659 27.3923C133.225 28.6558 133.917 29.6193 134.719 30.2353C135.474 30.8039 136.214 31.0882 136.984 31.0882C137.881 31.0724 138.652 30.7565 139.423 30.1247C140.225 29.4929 140.901 28.5137 141.436 27.2502C141.845 26.2551 142.144 25.1337 142.333 23.9018C142.522 22.6698 142.569 21.4063 142.506 20.1744C142.427 18.9424 142.239 17.7578 141.908 16.6364C141.594 15.5466 141.169 14.599 140.618 13.8093C140.146 13.0985 139.58 12.5773 138.951 12.2299C138.322 11.8824 137.677 11.7086 137.032 11.7086L137.016 11.6929ZM136.811 25.7813C136.371 25.7813 136.025 25.418 136.025 24.9916C136.025 24.6283 135.962 24.2966 135.82 23.9808C135.679 23.6491 135.49 23.3648 135.254 23.1279C135.034 22.891 134.766 22.7014 134.452 22.5593C134.153 22.4171 133.838 22.354 133.477 22.354C133.036 22.354 132.69 21.9907 132.69 21.5642V21.2168C132.69 20.7745 133.052 20.4271 133.477 20.4271C133.838 20.4271 134.153 20.3639 134.452 20.2217C134.751 20.0796 135.034 19.8901 135.254 19.6531C135.49 19.4162 135.679 19.1161 135.82 18.8003C135.962 18.4844 136.025 18.1369 136.025 17.7578C136.025 17.3156 136.387 16.9681 136.811 16.9681H137.205C137.645 16.9681 137.991 17.3314 137.991 17.7578C137.991 18.1369 138.054 18.4844 138.196 18.8003C138.337 19.1161 138.526 19.4004 138.762 19.6531C139.014 19.8901 139.281 20.0796 139.612 20.2217C139.926 20.3639 140.257 20.4271 140.618 20.4271C141.059 20.4271 141.405 20.7903 141.405 21.2168V21.5642C141.405 22.0065 141.043 22.354 140.618 22.354C140.257 22.354 139.926 22.4171 139.612 22.5593C139.281 22.7014 139.014 22.891 138.762 23.1279C138.526 23.3648 138.337 23.6491 138.196 23.9808C138.054 24.2966 137.991 24.6283 137.991 24.9916C137.991 25.4338 137.629 25.7813 137.205 25.7813H136.811Z" fill="#59422A"/>
<path d="M159.888 32.9518C159.7 32.9518 159.511 32.9518 159.322 32.936C157.686 32.8887 156.302 32.5728 155.248 32.0042C154.162 31.4356 153.329 30.6459 152.731 29.6666C152.165 28.719 151.771 27.6292 151.583 26.3972C151.394 25.2285 151.331 23.9491 151.378 22.6066V14.0304C151.378 13.825 151.315 13.6039 151.189 13.3512C151.032 13.0669 150.827 12.7826 150.592 12.5457C150.34 12.293 150.072 12.0877 149.774 11.9139C149.49 11.756 149.239 11.6612 149.034 11.6138C148.625 11.5507 148.342 11.1716 148.373 10.761C148.405 10.3503 148.751 10.0344 149.16 10.0344H159.464C159.904 10.0344 160.25 10.3977 160.25 10.8241V22.2749C160.25 22.9225 160.313 23.6175 160.439 24.344C160.549 25.0389 160.754 25.7023 161.021 26.3183C161.289 26.9184 161.619 27.4397 161.996 27.8661C162.342 28.261 162.751 28.5137 163.239 28.6716C163.491 28.7506 163.774 28.7822 164.057 28.7822C164.356 28.7822 164.671 28.7506 165.001 28.6716C165.615 28.5295 166.322 28.1978 167.109 27.6766V13.8092C167.109 13.6513 167.046 13.4776 166.92 13.288C166.747 13.0195 166.527 12.7668 166.275 12.5141C166.024 12.2772 165.756 12.0719 165.473 11.9139C165.206 11.756 164.97 11.6612 164.765 11.6296C164.356 11.5507 164.089 11.1874 164.12 10.7768C164.152 10.3661 164.498 10.0502 164.907 10.0502H175.179C175.619 10.0502 175.965 10.4135 175.965 10.8399V29.1296C175.965 29.2876 176.028 29.4613 176.154 29.6509C176.327 29.9194 176.532 30.1721 176.799 30.409C177.067 30.6617 177.35 30.867 177.649 31.0565C177.916 31.2145 178.152 31.3092 178.341 31.3408C178.75 31.4198 179.033 31.7831 178.986 32.1937C178.939 32.6044 178.608 32.9203 178.199 32.9203H167.895C167.455 32.9203 167.109 32.5728 167.109 32.1305V30.6143C166.936 30.7091 166.779 30.8038 166.606 30.8986C165.929 31.2777 165.19 31.6251 164.403 31.941C163.601 32.2569 162.767 32.5096 161.933 32.6991C161.241 32.8571 160.565 32.936 159.904 32.936L159.888 32.9518Z" fill="#59422A"/>
<path d="M192.86 32.936C192.42 32.936 192.074 32.5728 192.074 32.1463C192.074 31.7831 192.31 31.483 192.64 31.3882C192.703 31.3566 192.797 31.3092 192.939 31.2303C193.175 31.1039 193.442 30.9302 193.741 30.7091C194.009 30.5037 194.26 30.2352 194.481 29.9036C194.669 29.6351 194.748 29.3192 194.748 28.9243V20.6323C194.748 19.6531 194.607 18.6107 194.308 17.5525C194.04 16.5574 193.6 15.7361 193.018 15.1044C192.483 14.5358 191.791 14.2199 190.91 14.1725C189.982 14.1725 188.975 14.5358 187.811 15.2781V32.1621C187.811 32.6044 187.449 32.9518 187.024 32.9518H176.673C176.264 32.9518 175.918 32.636 175.887 32.2095C175.855 31.7989 176.154 31.4198 176.563 31.3566C176.799 31.325 177.082 31.2145 177.365 31.0565C177.664 30.8828 177.932 30.6775 178.168 30.4406C178.404 30.2036 178.593 29.9194 178.766 29.6193C178.891 29.3666 178.954 29.1454 178.954 28.9085V13.8092C178.954 13.6671 178.891 13.4934 178.766 13.3038C178.577 13.0353 178.357 12.7826 178.105 12.5615C177.837 12.3246 177.539 12.1035 177.24 11.9297C176.909 11.7402 176.689 11.6612 176.547 11.6454C176.138 11.5665 175.871 11.2032 175.903 10.7925C175.934 10.3819 176.28 10.066 176.689 10.066H187.04C187.48 10.066 187.827 10.4293 187.827 10.8557V12.3562C188 12.2614 188.173 12.1509 188.361 12.0561C189.054 11.677 189.809 11.3296 190.627 11.0137C191.445 10.6978 192.278 10.4609 193.128 10.2713C193.883 10.1134 194.638 10.0344 195.362 10.0344H195.692C196.557 10.066 197.407 10.1924 198.225 10.4135C199.074 10.6504 199.829 10.9821 200.506 11.4243C201.198 11.8823 201.796 12.4667 202.283 13.1617C202.771 13.8566 203.148 14.6937 203.369 15.6572C203.432 16.0046 203.494 16.3679 203.542 16.8259C203.589 17.284 203.636 17.9631 203.668 18.9108C203.699 19.8268 203.715 21.0746 203.73 22.6382C203.73 24.2176 203.73 26.3025 203.715 28.8927C203.715 29.1138 203.778 29.3508 203.903 29.6035C204.061 29.9036 204.265 30.1721 204.501 30.409C204.753 30.6617 205.02 30.867 205.319 31.0407C205.587 31.1987 205.838 31.2934 206.059 31.325C206.468 31.3882 206.766 31.7515 206.735 32.1779C206.704 32.5886 206.357 32.9203 205.948 32.9203H192.892L192.86 32.936Z" fill="#59422A"/>
<path d="M217.385 33.3309C215.434 33.3309 213.72 33.094 212.272 32.636C210.652 32.1148 209.378 31.1671 208.465 29.8088C207.553 28.4505 207.113 26.5394 207.113 23.9334V14.6938H204.879C204.438 14.6938 204.092 14.3305 204.092 13.9041V12.9248C204.092 12.4826 204.454 12.1351 204.879 12.1351H207.113V5.95956C207.113 5.95956 207.113 5.78582 206.924 5.51732C206.751 5.24882 206.53 4.98032 206.263 4.72761C205.996 4.4749 205.712 4.25378 205.414 4.08005C205.13 3.90631 204.879 3.79575 204.659 3.73257C204.281 3.62201 204.029 3.25875 204.076 2.86389C204.124 2.46904 204.47 2.16895 204.863 2.16895H215.167C215.607 2.16895 215.953 2.53221 215.953 2.95866V12.1193H222.183C222.623 12.1193 222.969 12.4826 222.969 12.909V13.8883C222.969 14.3305 222.607 14.678 222.183 14.678H215.953V23.4911C215.953 24.9442 216.095 26.2551 216.378 27.3607C216.645 28.3874 217.07 29.2244 217.684 29.8404C218.281 30.4406 219.068 30.8355 220.075 31.025C220.452 31.0882 220.861 31.1355 221.302 31.1355C222.12 31.1355 223.064 31.0092 224.133 30.7881C224.196 30.7881 224.243 30.7723 224.306 30.7723C224.479 30.7723 224.668 30.8355 224.81 30.946C224.999 31.104 225.109 31.3251 225.109 31.562V32.3833C225.109 32.8097 224.763 33.173 224.338 33.173C221.9 33.252 219.682 33.2994 217.684 33.3309H217.369H217.385Z" fill="#59422A"/>
<path d="M235.334 33.3309C232.392 33.2519 229.907 32.6202 227.925 31.4514C225.943 30.2826 224.432 28.8138 223.426 27.0764C222.435 25.339 221.931 23.4437 221.931 21.4379C221.931 19.432 222.435 17.5367 223.426 15.7993C224.417 14.0619 225.927 12.5931 227.925 11.4243C229.907 10.2555 232.408 9.62377 235.334 9.5448C237.174 9.5448 238.747 9.95545 240.022 10.761C241.264 11.5507 242.287 12.5773 243.058 13.8092C243.813 15.0254 244.363 16.3995 244.678 17.8842C244.993 19.3372 245.134 20.8061 245.134 22.2592C245.134 22.7014 244.772 23.0489 244.348 23.0489H230.394C230.457 23.6806 230.552 24.2966 230.678 24.9126C230.866 25.7813 231.118 26.6026 231.464 27.3923C231.92 28.4663 232.518 29.3034 233.226 29.872C233.934 30.4406 234.705 30.8196 235.491 30.9776C235.837 31.0407 236.183 31.0723 236.529 31.0723C237.001 31.0723 237.473 31.0091 237.945 30.8828C238.763 30.6617 239.518 30.2826 240.179 29.7298C240.84 29.1612 241.39 28.4347 241.815 27.566C242.24 26.7131 242.444 25.7023 242.444 24.5967C242.444 24.1545 242.806 23.807 243.231 23.807H244.348C244.568 23.807 244.772 23.9018 244.914 24.0439C245.056 24.2018 245.15 24.4072 245.134 24.6283L244.898 32.1463C244.898 32.5728 244.536 32.9203 244.112 32.9203L238.59 32.9518C238.118 33.0782 237.631 33.173 237.111 33.2361C236.561 33.2993 235.947 33.3467 235.302 33.3467H235.287L235.334 33.3309ZM239.471 20.4902C239.471 19.7637 239.424 18.9897 239.298 18.1527C239.125 17.0471 238.842 16.0046 238.449 15.0728C238.071 14.1725 237.583 13.4302 237.001 12.8616C236.545 12.4036 236.026 12.1824 235.444 12.1824H235.302C234.5 12.2298 233.824 12.5141 233.226 13.0511C232.581 13.6513 232.015 14.3936 231.574 15.2623C231.118 16.1468 230.788 17.1418 230.583 18.2C230.426 18.9897 230.347 19.7637 230.331 20.4902H239.487H239.471Z" fill="#59422A"/>
<path d="M244.143 32.9361C243.734 32.9361 243.404 32.636 243.357 32.2253C243.309 31.8147 243.577 31.4514 243.986 31.3567C244.253 31.2935 244.536 31.1829 244.82 31.0092C245.118 30.8196 245.402 30.5985 245.653 30.3458C245.889 30.1089 246.094 29.8404 246.251 29.5403C246.377 29.2876 246.44 29.0507 246.44 28.8296V13.8093C246.44 13.6671 246.377 13.4934 246.251 13.3039C246.062 13.0354 245.842 12.7669 245.575 12.5299C245.323 12.293 245.04 12.0877 244.725 11.9298C244.442 11.7718 244.19 11.6771 243.986 11.6455C243.577 11.5665 243.309 11.2032 243.341 10.7926C243.372 10.3819 243.718 10.066 244.127 10.066H254.51C254.95 10.066 255.296 10.4293 255.296 10.8558C255.485 10.761 255.69 10.6662 255.894 10.5715C256.681 10.2398 257.672 10.066 258.804 10.066H264.703C264.924 10.066 265.144 10.1608 265.285 10.3187C265.443 10.4767 265.506 10.6978 265.49 10.9347L264.829 18.0579C264.798 18.4686 264.452 18.7845 264.043 18.7845H262.879C262.485 18.7845 262.155 18.5002 262.092 18.1211C261.903 16.9997 261.573 16.0047 261.132 15.1992C260.692 14.3937 260.204 13.7777 259.654 13.3354C259.15 12.9248 258.647 12.6879 258.144 12.6405C258.081 12.6405 258.002 12.6405 257.939 12.6405C257.577 12.6405 257.247 12.7669 256.932 13.0196C256.508 13.3512 256.13 13.9514 255.831 14.7727C255.501 15.6572 255.328 16.8576 255.296 18.3422V28.877C255.296 29.1139 255.359 29.335 255.485 29.5877C255.642 29.8878 255.847 30.1563 256.083 30.3932C256.335 30.6459 256.618 30.867 256.917 31.0566C257.184 31.2303 257.451 31.3409 257.703 31.404C258.096 31.4988 258.364 31.8621 258.317 32.2727C258.269 32.6676 257.923 32.9835 257.53 32.9835H244.112L244.143 32.9361Z" fill="#59422A"/>
<path d="M31.1784 12.451H29.6997C29.4952 11.4086 29.0705 10.3346 28.4255 9.1974C27.7806 8.07601 26.9783 7.04939 26.0344 6.14912C25.0906 5.24884 24.0366 4.49072 22.8568 3.90634C21.677 3.32195 20.4657 3.03765 19.1915 3.03765C18.1061 3.06924 17.0521 3.35354 16.0296 3.90634C15.0071 4.45913 14.1262 5.31202 13.3711 6.44921C12.5373 7.66536 11.9081 9.10264 11.4677 10.7294C11.0272 12.372 10.7598 14.0778 10.6654 15.8626C10.571 17.6473 10.6654 19.4321 10.9328 21.201C11.2002 22.97 11.6564 24.581 12.3014 26.0656C12.9935 27.6766 13.9374 28.9402 15.0858 29.8405C16.2498 30.7565 17.5083 31.3409 18.8454 31.5936C20.1826 31.8463 21.5669 31.8147 22.9669 31.4515C24.367 31.0882 25.6884 30.5038 26.8839 29.6351C28.0794 28.7822 29.1177 27.6766 29.9671 26.3499C30.8166 25.0074 31.3829 23.4754 31.6346 21.738L31.2885 32.1306H23.6591C20.8904 32.6992 18.3892 32.8572 16.1397 32.5729C13.8902 32.3044 11.9081 31.72 10.2092 30.8197C8.51025 29.9194 7.06301 28.7822 5.89892 27.4081C4.73484 26.034 3.85391 24.5336 3.24041 22.891C2.6269 21.2484 2.29656 19.5584 2.23363 17.8053C2.17071 16.0521 2.39094 14.3463 2.89433 12.6879C3.39772 11.0295 4.18426 9.4817 5.23823 8.06022C6.2922 6.63874 7.64505 5.43838 9.29679 4.47493C10.9328 3.51148 12.8677 2.84812 15.07 2.48486C17.2723 2.12159 19.7735 2.15318 22.5736 2.59542H32.1065L31.1312 12.4036L31.1784 12.451Z" fill="#DA8027"/>
<path d="M53.9253 28.9087C53.9253 29.2719 54.0197 29.6352 54.2085 29.9985C54.3972 30.3617 54.6489 30.6934 54.9478 30.9935C55.2467 31.2936 55.5613 31.5463 55.9231 31.7516C56.2692 31.9569 56.6153 32.0833 56.9456 32.1465H46.5633V30.9777C45.5879 31.3726 44.5497 31.6726 43.4643 31.878C42.3788 32.0833 41.2148 32.1781 39.972 32.1465C38.0529 32.1465 36.527 31.8148 35.3786 31.1672C34.2303 30.5197 33.3965 29.6984 32.8931 28.7191C32.3897 27.7399 32.201 26.6659 32.3111 25.5287C32.4212 24.3915 32.7987 23.3175 33.428 22.3383C34.0572 21.359 34.9381 20.5377 36.0393 19.8902C37.1562 19.2426 38.4619 18.9109 39.9563 18.9109H46.5475V16.6523C46.5003 14.8834 46.2172 13.5725 45.6981 12.7196C45.1789 11.8667 44.534 11.3455 43.7474 11.1875C42.9609 11.0138 42.08 11.1244 41.1046 11.5192C40.1293 11.9141 39.1855 12.4827 38.2574 13.2566C37.3292 14.0147 36.4483 14.8992 35.646 15.91C34.8438 16.9208 34.1831 17.9317 33.6954 18.9583L34.3561 11.0612L40.79 10.9506C40.79 10.9506 40.8844 10.9506 40.9001 10.9348C40.9316 10.9348 40.9631 10.919 41.0103 10.919C42.7721 10.4768 44.4396 10.3504 46.0127 10.5558C47.5858 10.7611 48.9701 11.2507 50.1342 12.0562C51.2982 12.8617 52.2264 13.9515 52.9028 15.3098C53.5792 16.6681 53.9096 18.2949 53.9096 20.1902V28.9402L53.9253 28.9087ZM46.5633 19.8902H45.5565C44.4239 19.8902 43.4171 20.0639 42.5676 20.4114C41.7181 20.7588 41.0103 21.2169 40.4754 21.7855C39.9406 22.354 39.5316 23.0016 39.2956 23.7281C39.0439 24.4547 38.9495 25.197 39.0124 25.9393C39.1226 27.2345 39.4057 28.2137 39.8619 28.8771C40.3338 29.5404 40.9159 29.9827 41.608 30.2038C42.3002 30.4249 43.0867 30.4723 43.9362 30.3459C44.7857 30.2196 45.6666 29.9985 46.579 29.6826V19.8744L46.5633 19.8902Z" fill="#DA8027"/>
<path d="M65.9436 28.8297C65.9436 29.1929 66.038 29.5562 66.2425 29.9195C66.4313 30.2827 66.683 30.6144 66.9819 30.9145C67.2808 31.2146 67.5954 31.4673 67.9572 31.6884C68.3033 31.9095 68.6494 32.0517 68.9797 32.1307H55.5613C55.9231 32.0517 56.2849 31.9095 56.6467 31.6884C57.0085 31.4673 57.3389 31.2146 57.6378 30.9145C57.9366 30.6144 58.1726 30.2827 58.3771 29.9195C58.5659 29.5562 58.6603 29.1929 58.6603 28.8297V13.8094C58.6603 13.4935 58.5501 13.1776 58.3299 12.8617C58.1097 12.53 57.8423 12.2299 57.5434 11.9456C57.2288 11.6613 56.8984 11.4244 56.5366 11.2191C56.1748 11.0296 55.8444 10.9032 55.5613 10.8558H65.9436V12.4984C66.3841 12.0088 66.9504 11.614 67.6426 11.3139C68.3347 11.0138 69.1999 10.8716 70.2382 10.8716H76.1373L75.4766 17.9948H74.3125C74.108 16.7787 73.7619 15.7205 73.2585 14.8202C72.7708 13.9199 72.2045 13.225 71.591 12.7196C70.9775 12.2141 70.3326 11.9298 69.6719 11.8509C69.0112 11.7719 68.4134 11.9456 67.8628 12.3721C67.3122 12.7985 66.8718 13.4935 66.51 14.4727C66.1482 15.452 65.9594 16.7313 65.9279 18.3107V28.8612L65.9436 28.8297Z" fill="#DA8027"/>
<path d="M99.5134 28.9086C99.5134 29.2719 99.6077 29.6351 99.8122 29.9984C100.001 30.3617 100.253 30.6934 100.552 30.9934C100.85 31.2935 101.165 31.5462 101.527 31.7516C101.873 31.9569 102.219 32.0832 102.549 32.1464H92.23V30.6302C91.2704 31.104 90.2164 31.4673 89.0523 31.7358C87.8883 32.0043 86.7242 32.1622 85.5601 32.178C84.396 32.2096 83.2948 32.0832 82.2409 31.8147C81.1869 31.5462 80.306 31.104 79.5824 30.5038C78.8587 29.9036 78.2767 29.1771 77.8205 28.3084C77.3643 27.4397 77.0497 26.4921 76.8452 25.4655C76.6564 24.4388 76.5935 23.3648 76.6564 22.2592C76.7193 21.1378 76.8924 20.048 77.1755 18.9582C77.5373 17.5052 78.0879 16.289 78.8273 15.3256C79.5666 14.3463 80.3846 13.5566 81.3127 12.9564C82.2251 12.3405 83.1847 11.8824 84.1758 11.5665C85.1668 11.2507 86.1264 11.0295 87.0388 10.9032C87.9512 10.7768 88.7849 10.7137 89.5243 10.7137H92.2142V6.00698C92.2142 5.69109 92.1041 5.37521 91.8996 5.05932C91.6951 4.72765 91.4277 4.42756 91.1288 4.14326C90.8142 3.85896 90.4838 3.60626 90.1378 3.40093C89.7917 3.19561 89.4771 3.05346 89.1939 2.97449H99.4976V28.9402L99.5134 28.9086ZM92.23 11.6297L91.176 11.6613C90.0591 11.6297 89.0523 11.8982 88.1557 12.4352C87.2433 12.988 86.4567 13.7146 85.7488 14.6148C85.0567 15.5309 84.4904 16.5417 84.0656 17.6947C83.6409 18.8319 83.342 20.0165 83.2004 21.2168C83.0431 22.4172 83.0589 23.6017 83.2162 24.7389C83.3892 25.8761 83.7353 26.9027 84.2859 27.8188C84.805 28.7822 85.387 29.4772 86.0477 29.9036C86.7084 30.3301 87.3849 30.567 88.077 30.6302C88.7692 30.6776 89.4771 30.5986 90.185 30.3775C90.8928 30.1563 91.5693 29.8721 92.2142 29.5088V11.6297H92.23Z" fill="#DA8027"/>
<path d="M114.552 32.5413C111.768 32.4623 109.424 31.8779 107.552 30.7724C105.68 29.6668 104.28 28.3085 103.352 26.6816C102.424 25.0548 101.952 23.3175 101.952 21.4538C101.952 19.59 102.424 17.8369 103.352 16.2259C104.28 14.5991 105.68 13.2408 107.552 12.1352C109.424 11.0296 111.752 10.4452 114.552 10.3662C114.993 10.3662 115.417 10.3978 115.826 10.461C116.235 10.5242 116.629 10.6031 116.99 10.7137H123.975L123.314 17.8369H122.197C122.04 17.063 121.741 16.2733 121.301 15.4993C120.86 14.7254 120.325 14.0147 119.696 13.3513C119.067 12.688 118.359 12.1668 117.588 11.7403C116.817 11.3139 116.031 11.0612 115.244 10.998C114.458 10.9348 113.671 11.0927 112.9 11.4718C112.13 11.8509 111.422 12.5142 110.808 13.4777C110.21 14.3306 109.754 15.3572 109.408 16.5575C109.078 17.7579 108.873 19.0057 108.81 20.3166C108.747 21.6275 108.81 22.9226 109.031 24.202C109.235 25.4813 109.581 26.6658 110.037 27.7241C110.556 28.9244 111.217 29.8405 112.035 30.5038C112.853 31.1672 113.718 31.5937 114.646 31.7674C115.575 31.9569 116.518 31.9095 117.462 31.6726C118.406 31.4199 119.256 30.9777 120.026 30.3459C120.782 29.7141 121.411 28.9086 121.867 27.9294C122.339 26.9501 122.559 25.8446 122.559 24.5968H123.645L123.456 32.1149L117.793 32.1464C117.352 32.2728 116.865 32.3676 116.314 32.4465C115.779 32.5097 115.197 32.5413 114.568 32.5413H114.552Z" fill="#DA8027"/>
<path d="M137 32.5412C134.908 32.4938 133.067 32.1306 131.478 31.4672C129.89 30.8039 128.568 29.951 127.53 28.9243C126.476 27.8819 125.689 26.7132 125.17 25.418C124.635 24.1229 124.384 22.7962 124.384 21.4221C124.384 20.048 124.651 18.7213 125.17 17.4104C125.705 16.0994 126.492 14.9307 127.53 13.8882C128.584 12.8458 129.89 12.0087 131.463 11.3454C133.036 10.682 134.892 10.3345 137 10.2714C139.124 10.3187 140.964 10.682 142.537 11.3454C144.11 12.0087 145.432 12.8616 146.47 13.8882C147.524 14.9307 148.31 16.0994 148.83 17.4104C149.364 18.7213 149.616 20.0638 149.616 21.4221C149.616 22.7804 149.349 24.1071 148.83 25.418C148.295 26.7132 147.508 27.8819 146.47 28.9243C145.416 29.9668 144.11 30.8196 142.521 31.4672C140.933 32.1306 139.092 32.478 137 32.5412ZM132.737 13.3828C132.139 14.2673 131.683 15.3097 131.337 16.4943C131.006 17.6946 130.802 18.9424 130.739 20.2533C130.676 21.5642 130.739 22.8752 130.928 24.1703C131.117 25.4654 131.447 26.65 131.919 27.7082C132.532 29.1139 133.303 30.1563 134.231 30.867C135.144 31.562 136.103 31.9094 137.079 31.8779C138.054 31.8463 138.998 31.483 139.91 30.7565C140.823 30.0299 141.562 28.9717 142.16 27.566C142.6 26.5078 142.915 25.3233 143.104 24.0281C143.292 22.733 143.355 21.4379 143.277 20.1428C143.198 18.8476 142.993 17.5999 142.663 16.4311C142.333 15.2465 141.861 14.2357 141.263 13.3828C140.712 12.5773 140.067 11.9613 139.328 11.5507C138.589 11.14 137.802 10.9347 137.016 10.9347C136.229 10.9347 135.458 11.14 134.703 11.5507C133.948 11.9613 133.287 12.5931 132.721 13.4144L132.737 13.3828ZM137.189 17.742C137.189 18.2317 137.283 18.6897 137.456 19.1003C137.629 19.511 137.881 19.8742 138.195 20.1901C138.51 20.506 138.872 20.7429 139.281 20.9325C139.69 21.122 140.13 21.201 140.602 21.201V21.5484C140.13 21.5484 139.69 21.6432 139.281 21.8169C138.872 22.0065 138.51 22.2434 138.195 22.5593C137.881 22.8752 137.645 23.2384 137.456 23.6491C137.267 24.0597 137.189 24.502 137.189 24.9758H136.795C136.795 24.502 136.701 24.0755 136.528 23.6491C136.339 23.2384 136.103 22.8752 135.804 22.5593C135.506 22.2434 135.159 22.0065 134.75 21.8169C134.357 21.6432 133.917 21.5484 133.445 21.5484V21.201C133.917 21.201 134.341 21.1062 134.75 20.9325C135.144 20.7587 135.506 20.506 135.804 20.1901C136.103 19.8742 136.339 19.511 136.528 19.1003C136.701 18.6897 136.795 18.2317 136.795 17.742H137.189Z" fill="#DA8027"/>
<path d="M167.895 13.8094C167.895 13.4935 167.785 13.1776 167.581 12.8617C167.376 12.53 167.125 12.2299 166.826 11.9456C166.527 11.6613 166.212 11.4244 165.85 11.2191C165.504 11.0296 165.19 10.9032 164.907 10.8558H175.179V29.1455C175.179 29.4614 175.289 29.7773 175.493 30.0932C175.698 30.4249 175.965 30.725 176.264 31.0093C176.579 31.2936 176.909 31.5463 177.255 31.7516C177.601 31.9569 177.916 32.0833 178.199 32.1465H167.895L167.864 29.1455C167.408 29.5088 166.841 29.8721 166.197 30.2353C165.552 30.5986 164.844 30.9303 164.089 31.2304C163.333 31.5305 162.547 31.7674 161.729 31.9569C160.911 32.1307 160.124 32.2096 159.354 32.1465C157.796 32.0991 156.553 31.8148 155.594 31.3094C154.634 30.8039 153.895 30.1248 153.376 29.2719C152.857 28.419 152.511 27.424 152.322 26.3026C152.133 25.1812 152.07 23.965 152.133 22.6699V14.0621C152.133 13.7304 152.039 13.3671 151.85 13.0038C151.661 12.6406 151.409 12.3089 151.111 12.0088C150.812 11.7087 150.481 11.456 150.12 11.2507C149.758 11.0454 149.427 10.919 149.113 10.8558H159.417V22.3066C159.417 23.0016 159.479 23.7439 159.605 24.502C159.731 25.2602 159.951 25.9867 160.25 26.6659C160.549 27.345 160.911 27.9294 161.351 28.419C161.792 28.9086 162.327 29.2561 162.956 29.4456C163.585 29.6352 164.309 29.651 165.127 29.4614C165.945 29.2719 166.857 28.8297 167.864 28.1031V13.8251L167.895 13.8094Z" fill="#DA8027"/>
<path d="M187.008 13.8093C187.48 13.4776 188.047 13.1144 188.707 12.7511C189.368 12.3878 190.107 12.0562 190.878 11.7561C191.649 11.456 192.451 11.2191 193.269 11.0611C194.087 10.8874 194.874 10.8242 195.66 10.84C196.463 10.8716 197.249 10.9822 198.004 11.1875C198.759 11.3928 199.452 11.6929 200.065 12.1036C200.679 12.4984 201.198 13.0196 201.638 13.6356C202.079 14.2516 202.393 14.9939 202.613 15.8468C202.661 16.1311 202.724 16.4943 202.771 16.9208C202.818 17.3472 202.865 18.0106 202.881 18.9267C202.912 19.8427 202.928 21.0747 202.944 22.6383C202.944 24.2019 202.944 26.2868 202.928 28.8928C202.928 29.2561 203.022 29.6193 203.211 29.9826C203.4 30.3459 203.652 30.6776 203.951 30.9776C204.249 31.2777 204.564 31.5304 204.926 31.7358C205.272 31.9411 205.618 32.0674 205.948 32.1306H192.892C192.892 32.1306 193.065 32.0674 193.332 31.9095C193.6 31.7674 193.914 31.562 194.245 31.3093C194.575 31.0566 194.89 30.7249 195.157 30.3143C195.424 29.9194 195.566 29.4456 195.566 28.8928V20.6008C195.566 19.5426 195.409 18.437 195.11 17.3156C194.795 16.1943 194.308 15.2624 193.631 14.5359C192.955 13.8093 192.074 13.4145 190.988 13.3513C189.903 13.2881 188.582 13.7777 187.04 14.8044V32.1306H176.689C177.019 32.0832 177.381 31.9569 177.759 31.7358C178.136 31.5304 178.467 31.2777 178.75 30.9776C179.033 30.6776 179.269 30.3459 179.473 29.9826C179.662 29.6193 179.756 29.2561 179.756 28.8928V13.7935C179.756 13.4776 179.646 13.1618 179.426 12.8459C179.206 12.5142 178.938 12.2299 178.64 11.9456C178.325 11.6771 177.995 11.4402 177.649 11.2191C177.302 10.998 176.988 10.8874 176.705 10.8242H187.056V13.7777L187.008 13.8093Z" fill="#DA8027"/>
<path d="M215.198 2.95874V12.9249H222.214V13.9041H215.198V23.5228C215.198 25.0549 215.34 26.4132 215.639 27.5977C215.938 28.7823 216.441 29.7299 217.149 30.4407C217.857 31.1514 218.801 31.6253 219.965 31.8464C221.129 32.0675 222.592 31.9885 224.338 31.5937V32.415C221.915 32.4939 219.697 32.5413 217.684 32.5729C215.686 32.6045 213.955 32.3834 212.508 31.9096C211.061 31.4357 209.928 30.5986 209.11 29.3983C208.292 28.1979 207.883 26.3816 207.883 23.9651V13.9199H204.863V12.9407H207.883V5.94385C207.883 5.69114 207.773 5.39105 207.569 5.07517C207.364 4.74349 207.097 4.4434 206.798 4.14331C206.483 3.84322 206.153 3.59051 205.807 3.38518C205.461 3.17986 205.146 3.03771 204.863 2.95874H215.167H215.198Z" fill="#DA8027"/>
<path d="M235.349 32.5413C232.534 32.4623 230.19 31.8779 228.318 30.7724C226.446 29.6668 225.046 28.3085 224.118 26.6816C223.189 25.0548 222.718 23.3175 222.718 21.4538C222.718 19.59 223.189 17.8369 224.118 16.2259C225.046 14.5991 226.446 13.2408 228.318 12.1352C230.19 11.0296 232.534 10.4452 235.349 10.3662C237.033 10.3662 238.448 10.7295 239.597 11.456C240.745 12.1825 241.673 13.1144 242.381 14.2516C243.089 15.3888 243.592 16.6681 243.891 18.0738C244.19 19.4795 244.332 20.8694 244.332 22.2751H229.529C229.576 23.2385 229.702 24.1704 229.891 25.1022C230.08 26.0183 230.363 26.9028 230.725 27.7241C231.244 28.9244 231.904 29.8405 232.722 30.5038C233.54 31.1672 234.406 31.5937 235.334 31.7674C236.262 31.9569 237.206 31.9095 238.15 31.6726C239.093 31.4199 239.943 30.9777 240.682 30.3459C241.437 29.7141 242.051 28.9086 242.523 27.9294C242.995 26.9501 243.246 25.8446 243.246 24.5968H244.363L244.127 32.1149L238.511 32.1464C238.055 32.2728 237.552 32.3676 237.033 32.4465C236.513 32.5097 235.947 32.5413 235.334 32.5413H235.349ZM240.242 21.28C240.32 20.3008 240.273 19.211 240.084 18.0264C239.896 16.8418 239.597 15.752 239.172 14.757C238.747 13.762 238.197 12.9407 237.536 12.2931C236.875 11.6455 236.104 11.3455 235.224 11.3928C234.248 11.4402 233.383 11.8035 232.659 12.4668C231.936 13.1302 231.322 13.9357 230.835 14.8992C230.347 15.8626 229.985 16.905 229.765 18.058C229.545 19.1952 229.466 20.2692 229.513 21.28H240.21H240.242Z" fill="#DA8027"/>
<path d="M254.541 28.8297C254.541 29.1929 254.635 29.5562 254.84 29.9195C255.029 30.2827 255.28 30.6144 255.579 30.9145C255.878 31.2146 256.193 31.4673 256.555 31.6884C256.916 31.9095 257.247 32.0517 257.577 32.1307H244.159C244.521 32.0517 244.882 31.9095 245.244 31.6884C245.606 31.4673 245.936 31.2146 246.235 30.9145C246.534 30.6144 246.77 30.2827 246.975 29.9195C247.163 29.5562 247.258 29.1929 247.258 28.8297V13.8094C247.258 13.4935 247.148 13.1776 246.927 12.8617C246.707 12.53 246.44 12.2299 246.141 11.9456C245.826 11.6613 245.496 11.4244 245.134 11.2191C244.772 11.0296 244.442 10.9032 244.159 10.8558H254.541V12.4984C254.982 12.0088 255.548 11.614 256.24 11.3139C256.932 11.0138 257.797 10.8716 258.836 10.8716H264.735L264.074 17.9948H262.91C262.705 16.7787 262.359 15.7205 261.856 14.8202C261.368 13.9199 260.802 13.225 260.188 12.7196C259.575 12.2141 258.93 11.9298 258.269 11.8509C257.609 11.7719 257.011 11.9456 256.46 12.3721C255.91 12.7985 255.469 13.4935 255.107 14.4727C254.746 15.452 254.557 16.7313 254.525 18.3107V28.8612L254.541 28.8297Z" fill="#DA8027"/>
</svg>
