<svg width="1737" height="107" viewBox="0 0 1737 107" fill="none" xmlns="http://www.w3.org/2000/svg">
<path fill-rule="evenodd" clip-rule="evenodd" d="M731.256 79.7783C717.918 91.0448 697.582 93.4927 682.707 83.9208C675.771 79.4645 670.279 72.6857 667.957 64.7144C665.603 56.6804 666.45 47.7362 670.499 40.3612C676.713 29.0005 690.113 23.6027 702.541 27.1176C709.32 29.0319 714.812 34.4926 717.103 41.1144C718.326 44.6293 718.703 48.458 717.981 52.0985C717.636 53.7618 717.071 55.3937 716.192 56.8687C715.753 57.5905 714.027 60.258 712.834 59.5362C711.893 58.9713 712.395 56.3666 712.395 55.5192C712.395 53.3224 712.144 51.157 711.485 49.0543C710.324 45.257 707.907 41.6165 704.392 39.6394C699.528 36.9091 693.722 37.5995 688.952 40.1101C683.46 43.3426 680.887 49.525 681.2 55.7703C681.64 64.1495 687.948 70.9597 695.574 73.8155C703.733 76.8597 713.085 75.2905 720.523 71.0538C728.055 66.7857 733.767 60.0384 739.573 53.7931C745.598 47.3282 752.032 41.3341 759.407 36.4069C766.719 31.5112 774.565 27.8394 782.944 25.266C799.075 20.9665 816.398 21.6569 831.274 29.8165C845.522 37.6309 855.753 52.8203 856.192 69.2964C856.286 72.3719 856.004 75.4474 855.376 78.4602C858.138 62.0783 849.664 44.9431 835.919 35.9676C821.89 26.5841 803.814 25.8309 788.06 30.8208C776.134 34.5867 765.432 42.2756 756.771 51.157C752.189 55.6761 748.36 60.9485 744.374 65.9698C740.389 70.9597 736.215 75.6985 731.288 79.7783C730.786 80.1863 731.79 79.3703 731.288 79.7783H731.256Z" fill="#3E5448"/>
<path fill-rule="evenodd" clip-rule="evenodd" d="M789.756 46.8576C779.807 51.3454 770.33 60.0699 770.298 71.8072C770.267 77.1736 772.307 82.5088 776.418 86.055C778.395 87.7497 780.686 89.0364 783.134 89.9465C784.138 90.3231 787.81 90.8253 788.092 92.1433C788.406 93.587 785.268 94.3715 784.358 94.5912C782.349 95.062 780.31 94.9678 778.27 94.6854C774.096 93.9949 770.141 91.8923 767.097 88.9737C761.134 83.1992 758.749 74.4433 759.848 66.3465C760.946 58.2183 765.465 50.8747 771.679 45.5709C778.019 40.1731 785.958 37.1289 794.087 35.748C808.711 33.2688 824.685 35.8422 836.862 44.6608C842.636 48.8348 847.626 54.6406 850.451 61.2311C852.02 64.9029 853.244 68.6688 853.683 72.6231C854.06 76.1694 853.777 79.4646 853.244 82.9481C853.903 75.9183 852.93 69.0768 849.478 62.8002C845.994 56.5236 841.004 51.2826 834.696 47.7991C827.918 44.0646 820.166 42.3699 812.477 42.3071C808.648 42.3071 804.82 42.6209 801.085 43.3741C797.288 44.1273 793.239 45.1002 789.756 46.8576C790.227 46.6066 785.927 48.5837 789.756 46.8576Z" fill="#3E5448"/>
<path fill-rule="evenodd" clip-rule="evenodd" d="M807.802 19.1463C800.709 18.8639 793.617 19.4915 786.618 20.5585C779.997 21.5942 773.281 22.8809 767.004 25.1718C760.978 27.3373 755.267 30.0362 750.026 33.708C747.923 35.183 745.946 36.7836 744.032 38.4469C743.498 38.9176 740.391 42.3384 739.481 41.7421C738.163 40.9261 741.929 35.591 742.368 34.9947C744.691 31.7623 747.578 28.9692 750.685 26.4899C757.307 21.2803 765.247 17.891 773.312 15.6942C789.851 11.175 808.618 10.108 824.78 16.6357C836.988 21.5628 847.376 30.6953 853.809 42.1814C860.431 54.0442 862.597 68.0097 860.18 81.3475C862.314 66.2522 858.266 50.6235 848.506 38.8235C838.432 26.7096 823.493 19.7112 807.833 19.1463C805.542 19.0521 810.187 19.2404 807.833 19.1463H807.802Z" fill="#3E5448"/>
<path fill-rule="evenodd" clip-rule="evenodd" d="M662.371 13.7796C668.585 5.27483 678.345 0.19078 688.89 0.0338646C693.974 -0.0289015 699.121 1.03812 703.703 3.26632C705.837 4.30196 707.814 5.58866 709.634 7.12643C710.324 7.69132 713.871 10.9552 712.866 12.0536C712.113 12.9009 708.975 11.0807 708.19 10.7041C706.715 9.98229 705.052 9.48016 703.514 8.94664C699.466 7.75409 695.323 6.96951 691.087 7.09505C682.331 7.28334 674.203 10.8296 668.177 17.169C656.597 29.377 655.592 47.5164 662.811 62.1723C665.29 67.1936 668.616 71.7441 672.539 75.7297C664.317 68.3233 657.883 58.3749 655.561 47.485C653.05 35.8105 655.279 23.5084 662.34 13.811C660.112 16.8552 664.505 10.861 662.34 13.811L662.371 13.7796Z" fill="#3E5448"/>
<path fill-rule="evenodd" clip-rule="evenodd" d="M619.314 54.1071C611.877 58.1869 607.452 67.5076 612.096 75.2906C614.073 78.6486 617.337 80.6257 621.166 81.1279C622.61 81.3789 624.273 81.2534 625.717 81.0023C626.752 80.814 627.788 80.563 628.823 80.2805C629.545 80.0922 630.832 79.5587 631.491 80.1236C632.558 81.0023 631.083 83.1364 630.487 83.8896C629.326 85.396 627.725 86.5571 626.03 87.3731C622.61 89.005 618.781 89.4758 615.078 88.7539C607.295 87.2476 601.426 80.5316 599.637 72.9997C597.66 64.7145 600.767 56.0214 606.918 50.2784C613.163 44.4411 622.013 42.2757 630.361 43.5624C641.314 45.2571 650.133 52.6948 655.938 61.7959C661.901 71.0853 666.075 82.5087 676.055 88.346C665.039 82.9481 659.799 71.1167 651.796 62.4864C643.793 53.856 630.581 48.0502 619.314 54.0757C617.965 54.7975 622.076 52.6007 619.314 54.0757V54.1071Z" fill="#3E5448"/>
<path fill-rule="evenodd" clip-rule="evenodd" d="M628.886 34.0841C624.493 32.358 619.879 30.9144 616.051 28.0586C613.822 26.458 611.594 23.508 614.701 21.5309C617.369 19.8048 621.041 19.9617 624.022 20.5894C636.669 23.2256 643.385 36.5006 647.402 47.5474C645.111 44.1581 642.507 41.2081 639.054 38.9171C635.885 36.8458 632.464 35.3708 628.886 34.1155V34.0841Z" fill="#3E5448"/>
<path fill-rule="evenodd" clip-rule="evenodd" d="M642.289 20.6209C640.532 17.5454 639.967 13.2145 642.069 10.1703C643.952 7.44002 647.31 7.65971 649.476 9.91928C652.52 13.0576 652.332 17.3571 651.61 21.3427C650.857 25.548 649.915 29.6278 649.915 33.9273C647.562 28.0273 645.522 26.1757 642.321 20.6523C639.245 15.2858 645.49 26.1757 642.321 20.6523L642.289 20.6209Z" fill="#3E5448"/>
<path fill-rule="evenodd" clip-rule="evenodd" d="M1006.58 79.7783C1001.66 75.6985 997.482 70.9597 993.496 65.9698C989.479 60.9485 985.682 55.6761 981.1 51.157C972.438 42.2756 961.736 34.5867 949.811 30.8208C934.057 25.8309 916.011 26.5527 901.952 35.9676C888.237 44.9431 879.733 62.0783 882.494 78.4602C881.867 75.4474 881.584 72.3719 881.678 69.2964C882.118 52.8517 892.349 37.6623 906.596 29.8165C921.472 21.6569 938.795 20.9665 954.926 25.266C963.306 27.8394 971.151 31.5112 978.464 36.4069C985.839 41.3341 992.272 47.3282 998.298 53.7931C1004.1 60.0384 1009.85 66.7857 1017.35 71.0538C1024.79 75.2905 1034.14 76.8597 1042.3 73.8155C1049.92 70.9597 1056.23 64.1495 1056.67 55.7703C1056.98 49.525 1054.41 43.3426 1048.92 40.1101C1044.15 37.5681 1038.34 36.9091 1033.48 39.6394C1029.96 41.6165 1027.55 45.2883 1026.39 49.0543C1025.73 51.157 1025.48 53.3224 1025.48 55.5192C1025.48 56.3666 1025.98 58.9713 1025.04 59.5362C1023.84 60.258 1022.12 57.5905 1021.68 56.8687C1020.8 55.3937 1020.2 53.7618 1019.89 52.0985C1019.17 48.458 1019.54 44.6293 1020.77 41.1144C1023.09 34.524 1028.55 29.0319 1035.33 27.1176C1047.76 23.6027 1061.16 29.0005 1067.37 40.3612C1071.42 47.7362 1072.27 56.6804 1069.91 64.7144C1067.59 72.6857 1062.1 79.4645 1055.16 83.9208C1040.29 93.4927 1019.95 91.0448 1006.61 79.7783C1006.11 79.3703 1007.12 80.1863 1006.61 79.7783H1006.58Z" fill="#3E5448"/>
<path fill-rule="evenodd" clip-rule="evenodd" d="M948.084 46.8576C944.6 45.1002 940.552 44.1273 936.754 43.3741C932.988 42.6209 929.191 42.2757 925.362 42.3071C917.673 42.3699 909.922 44.0646 903.143 47.7991C896.835 51.2826 891.845 56.5236 888.362 62.8002C884.878 69.0768 883.937 75.9183 884.596 82.9481C884.062 79.4646 883.78 76.138 884.156 72.6231C884.596 68.6375 885.82 64.8715 887.389 61.2311C890.213 54.6406 895.203 48.8348 900.978 44.6608C913.123 35.8422 929.128 33.2688 943.753 35.748C951.881 37.1289 959.821 40.1731 966.16 45.5709C972.374 50.8433 976.862 58.1869 977.992 66.3465C979.09 74.4433 976.736 83.1992 970.742 88.9737C967.698 91.9237 963.775 94.0263 959.57 94.6854C957.561 94.9992 955.49 95.062 953.481 94.5912C952.571 94.3715 949.433 93.5556 949.747 92.1434C950.029 90.8253 953.701 90.3231 954.705 89.9465C957.153 89.0364 959.413 87.7811 961.421 86.055C965.564 82.5088 967.572 77.1737 967.541 71.8072C967.541 60.1013 958.032 51.3768 948.084 46.8576C951.912 48.5837 947.613 46.6066 948.084 46.8576Z" fill="#3E5448"/>
<path fill-rule="evenodd" clip-rule="evenodd" d="M930.038 19.1459C914.378 19.7422 899.409 26.7093 889.366 38.8231C879.606 50.5917 875.558 66.2519 877.692 81.3471C875.275 68.0093 877.472 54.0439 884.062 42.1811C890.464 30.6949 900.884 21.5311 913.092 16.6353C929.254 10.139 948.021 11.1747 964.56 15.6938C972.625 17.8906 980.565 21.28 987.187 26.4896C990.325 28.9375 993.181 31.7305 995.503 34.9944C995.943 35.5907 999.709 40.9258 998.391 41.7417C997.481 42.338 994.374 38.9173 993.84 38.4465C991.926 36.7832 989.917 35.1827 987.846 33.7077C982.605 30.0359 976.893 27.3369 970.868 25.1715C964.56 22.8805 957.844 21.5938 951.253 20.5582C944.255 19.4598 937.162 18.8635 930.07 19.1459C927.716 19.2401 932.361 19.0518 930.07 19.1459H930.038Z" fill="#3E5448"/>
<path fill-rule="evenodd" clip-rule="evenodd" d="M1075.5 13.7798C1082.59 23.4771 1084.79 35.7793 1082.28 47.4538C1079.92 58.3437 1073.49 68.2921 1065.3 75.6985C1069.22 71.7128 1072.55 67.1623 1075.03 62.141C1082.25 47.4851 1081.27 29.3457 1069.66 17.1377C1063.6 10.767 1055.51 7.25209 1046.75 7.0638C1042.51 6.96965 1038.37 7.75422 1034.32 8.91539C1032.75 9.44891 1031.12 9.95104 1029.65 10.6728C1028.86 11.0181 1025.76 12.8383 1024.97 12.0223C1023.97 10.9239 1027.51 7.69146 1028.2 7.09518C1030.02 5.55741 1032 4.30209 1034.14 3.23507C1038.72 1.00687 1043.86 -0.0601515 1048.95 0.00261458C1059.49 0.15953 1069.28 5.24358 1075.5 13.7484C1073.33 10.7984 1077.73 16.7925 1075.5 13.7484V13.7798Z" fill="#3E5448"/>
<path fill-rule="evenodd" clip-rule="evenodd" d="M1118.56 54.1069C1107.29 48.0814 1094.08 53.8873 1086.08 62.5176C1078.07 71.1479 1072.83 82.9793 1061.82 88.3772C1071.83 82.54 1075.97 71.1166 1081.93 61.8272C1087.77 52.7261 1096.59 45.2883 1107.51 43.5936C1115.86 42.3069 1124.71 44.4724 1130.95 50.3096C1137.1 56.0527 1140.21 64.7458 1138.23 73.0309C1136.44 80.5628 1130.58 87.2474 1122.79 88.7852C1119.09 89.507 1115.23 89.0363 1111.84 87.4043C1110.15 86.5884 1108.55 85.3958 1107.38 83.9208C1106.79 83.1676 1105.31 81.0336 1106.38 80.1549C1107.07 79.59 1108.33 80.1235 1109.05 80.3118C1110.08 80.5942 1111.09 80.8453 1112.15 81.0336C1113.6 81.2847 1115.23 81.4102 1116.7 81.1591C1120.53 80.657 1123.8 78.6799 1125.77 75.3219C1130.42 67.5389 1125.99 58.2181 1118.56 54.1383C1115.79 52.6633 1119.91 54.8601 1118.56 54.1383V54.1069Z" fill="#3E5448"/>
<path fill-rule="evenodd" clip-rule="evenodd" d="M1098.78 38.8865C1095.33 41.1775 1092.73 44.0961 1090.44 47.5169C1094.42 36.47 1101.17 23.195 1113.82 20.5588C1116.8 19.9312 1120.47 19.8056 1123.14 21.5003C1126.24 23.5088 1124.02 26.4275 1121.79 28.028C1117.96 30.8839 1113.35 32.3275 1108.95 34.0535C1105.41 35.3089 1101.95 36.7839 1098.78 38.8551V38.8865Z" fill="#3E5448"/>
<path fill-rule="evenodd" clip-rule="evenodd" d="M1095.55 20.621C1092.38 26.1444 1090.31 27.996 1087.96 33.8961C1087.96 29.5966 1087.01 25.5168 1086.26 21.3115C1085.54 17.3258 1085.35 13.0263 1088.4 9.88803C1090.56 7.62846 1093.92 7.40877 1095.8 10.1391C1097.9 13.2146 1097.34 17.5455 1095.58 20.5896C1092.41 26.1131 1098.66 15.2231 1095.58 20.5896L1095.55 20.621Z" fill="#3E5448"/>
<path fill-rule="evenodd" clip-rule="evenodd" d="M1696.54 23.6344C1696.29 20.0567 1696.13 16.4791 1696.44 12.9014C1696.76 9.41787 1697.26 5.05563 1699.74 2.35669C1702.28 -0.436397 1705.89 1.13275 1708.06 3.51786C1710.63 6.31095 1711.98 10.1397 1712.48 13.8429C1714.61 29.6913 1700.65 42.8094 1688.28 50.1844C1695.13 42.9663 1697.42 33.3945 1696.54 23.6658C1696.54 23.3519 1696.79 26.3647 1696.54 23.6658V23.6344Z" fill="#3E5448"/>
<path fill-rule="evenodd" clip-rule="evenodd" d="M1715.81 35.0581C1719.54 30.8527 1724.03 26.7416 1729.77 25.7059C1733.44 25.0469 1736.61 26.8985 1736.96 30.7272C1737.24 34.0224 1735.7 37.3804 1733.76 39.9538C1725.13 51.44 1708.02 50.1219 1695.35 49.3374C1699.49 48.2703 1703.41 46.6698 1706.8 44.0336C1710.19 41.4288 1713.05 38.2905 1715.81 35.0267V35.0581Z" fill="#3E5448"/>
<path fill-rule="evenodd" clip-rule="evenodd" d="M1696.54 83.701C1697.42 73.9723 1695.16 64.4005 1688.28 57.1824C1700.62 64.5888 1714.58 77.6755 1712.48 93.5239C1711.98 97.2271 1710.63 101.056 1708.06 103.849C1705.89 106.234 1702.28 107.772 1699.74 105.01C1697.26 102.311 1696.76 97.9489 1696.44 94.4654C1696.13 90.8878 1696.29 87.3101 1696.54 83.7324C1696.54 84.0462 1696.79 81.0335 1696.54 83.7324V83.701Z" fill="#3E5448"/>
<path fill-rule="evenodd" clip-rule="evenodd" d="M1706.8 63.2706C1703.38 60.6345 1699.49 59.0339 1695.35 57.9669C1708.02 57.1823 1725.13 55.8643 1733.76 67.3504C1735.7 69.9239 1737.27 73.2818 1736.96 76.5771C1736.61 80.4058 1733.44 82.226 1729.77 81.5983C1724 80.5941 1719.54 76.4829 1715.81 72.2462C1713.05 68.9824 1710.19 65.8754 1706.8 63.2393V63.2706Z" fill="#3E5448"/>
<path d="M1668.51 53.887L1151.32 55.362V51.9727C1151.38 52.4434 1669.39 52.5689 1668.51 53.887Z" fill="#3E5448"/>
<path d="M1668.51 59.4425C1671.7 59.4425 1674.29 56.8572 1674.29 53.668C1674.29 50.4789 1671.7 47.8936 1668.51 47.8936C1665.32 47.8936 1662.74 50.4789 1662.74 53.668C1662.74 56.8572 1665.32 59.4425 1668.51 59.4425Z" fill="#3E5448"/>
<path d="M1151.32 59.4425C1154.51 59.4425 1157.09 56.8572 1157.09 53.668C1157.09 50.4789 1154.51 47.8936 1151.32 47.8936C1148.13 47.8936 1145.54 50.4789 1145.54 53.668C1145.54 56.8572 1148.13 59.4425 1151.32 59.4425Z" fill="#3E5448"/>
<path fill-rule="evenodd" clip-rule="evenodd" d="M40.4547 23.6342C39.576 33.3629 41.8356 42.9347 48.7085 50.1528C36.3749 42.7465 22.4095 29.6597 24.5121 13.8113C25.0143 10.1081 26.3637 6.27937 28.9372 3.48628C31.1026 1.10117 34.7116 -0.436601 37.2537 2.32511C39.7329 5.02405 40.235 9.38629 40.5489 12.8698C40.8627 16.4475 40.7058 20.0251 40.4547 23.6028C40.2037 26.3017 40.4547 23.289 40.4547 23.6028V23.6342Z" fill="#3E5448"/>
<path fill-rule="evenodd" clip-rule="evenodd" d="M30.1921 44.0331C33.6129 46.6693 37.5044 48.2698 41.6469 49.3368C28.9682 50.1214 11.8644 51.4395 3.23408 39.9533C1.31972 37.3485 -0.249432 34.0219 0.0330154 30.7267C0.378229 26.8979 3.54791 25.0777 7.21973 25.7054C12.9942 26.7096 17.4506 30.8208 21.1852 35.0575C23.9469 38.3214 26.8027 41.4283 30.1921 44.0645V44.0331Z" fill="#3E5448"/>
<path fill-rule="evenodd" clip-rule="evenodd" d="M40.4534 83.7014C40.7045 87.2791 40.8614 90.8567 40.5476 94.4344C40.2337 97.9179 39.7316 102.28 37.2523 104.979C34.7103 107.772 31.1013 106.203 28.9358 103.818C26.3624 101.025 25.013 97.1961 24.5108 93.4929C22.3768 77.6445 36.3422 64.5264 48.7071 57.1514C41.8656 64.3695 39.5747 73.9413 40.4534 83.67C40.2023 80.9711 40.4534 83.9839 40.4534 83.67V83.7014Z" fill="#3E5448"/>
<path fill-rule="evenodd" clip-rule="evenodd" d="M21.1857 72.2787C17.4511 76.484 12.9634 80.5952 7.22028 81.6308C3.54846 82.2899 0.378776 80.4383 0.0335623 76.6095C-0.248885 73.3143 1.28888 69.9563 3.23463 67.3829C11.865 55.8967 28.9687 57.2148 41.6475 57.9994C37.5049 59.0664 33.582 60.6669 30.1927 63.3031C26.8033 65.9079 23.9474 69.0462 21.1857 72.3101V72.2787Z" fill="#3E5448"/>
<path d="M68.4796 53.887L585.672 55.362V51.9727C585.609 52.4434 67.6009 52.5689 68.4796 53.887Z" fill="#3E5448"/>
<path d="M68.4791 59.4425C71.6682 59.4425 74.2535 56.8572 74.2535 53.668C74.2535 50.4789 71.6682 47.8936 68.4791 47.8936C65.2899 47.8936 62.7046 50.4789 62.7046 53.668C62.7046 56.8572 65.2899 59.4425 68.4791 59.4425Z" fill="#3E5448"/>
<path d="M585.672 59.4425C588.861 59.4425 591.446 56.8572 591.446 53.668C591.446 50.4789 588.861 47.8936 585.672 47.8936C582.483 47.8936 579.897 50.4789 579.897 53.668C579.897 56.8572 582.483 59.4425 585.672 59.4425Z" fill="#3E5448"/>
</svg>
